<svg id="Capa_5" data-name="Capa 5" xmlns="http://www.w3.org/2000/svg" viewBox="0 0 122.28 207.39"><defs><style>.cls-1{fill:#d1d1d1;}.cls-2,.cls-3,.cls-4,.cls-5{fill-rule:evenodd;}.cls-3{fill:#aadbe8;}.cls-4{fill:#93b9b5;}.cls-5{fill:#fff;}</style></defs><title>coolito5</title><ellipse class="cls-1" cx="56.49" cy="200.06" rx="47.33" ry="7.33"/><path class="cls-2" d="M119.36,177.73c.17,9.69.34,19.21.52,28.87,4.92,2.19,7.42,6,7.82,11.52-2.45.15-4.63.34-6.81.39q-10.67.26-21.35.44c-3.36.05-3.85-.67-2.85-3.93,1.16-3.77,3.23-6.72,7.07-8.16a10.34,10.34,0,0,0,1.07-.56c-.16-9.31-.31-18.6-.47-28.07a105.44,105.44,0,0,0-18.5-.07c0,.76-.12,1.46-.11,2.17.11,8.14.27,16.29.34,24.43a2.68,2.68,0,0,0,1.66,2.72c3.72,1.89,5.37,5.25,6.17,9.14a2.28,2.28,0,0,1,0,.65,7.24,7.24,0,0,1-.19.84c-2.12.13-4.28.34-6.45.4-7.19.18-14.38.3-21.57.45a12.65,12.65,0,0,1-1.32,0c-1.6-.15-2.13-.71-1.79-2.31.86-4,2.46-7.63,6.56-9.3,1.7-.69,2-1.66,1.94-3.33-.18-6.82-.19-13.65-.3-20.47,0-2-.17-3.94-.26-6-.87-.25-1.64-.47-2.4-.7-3.35-1-6.12-2.85-7.71-6.09a3,3,0,0,0-2-1.49,39.74,39.74,0,0,1-11.09-5.74,14.7,14.7,0,0,1-3.07-3.12,27.41,27.41,0,0,1-5.21-16.94c.22-5.06.57-10.12,2.38-14.93.59-1.58,1.27-3.12,2-4.88-2.39-3.78-1-7.24,1.83-10.58-.7-.35-1.18-.63-1.69-.83-1.84-.73-3.67-1.51-5.55-2.11-1.41-.45-1.84-1.27-2-2.71-2.07-21,12.5-43,28.57-51.88a72.69,72.69,0,0,1,22.59-7.71c1.73-.31,3.46-.58,5.29-.88V39.11c-.42-.23-.84-.51-1.3-.7a6.85,6.85,0,0,1-4.09-4.62c-1.55-5.46-.84-9.68,4.33-13.35a11,11,0,0,1,11.9-.65,19.62,19.62,0,0,1,2.35,1.62c4,2.86,4.28,12.84.16,16.13a25.17,25.17,0,0,1-4,2.14v7.13c2.43.47,4.86.91,7.28,1.43,8.38,1.81,16.42,4.5,23.57,9.35,10.21,6.94,17.18,16.43,21.86,27.77A48.07,48.07,0,0,1,158,107.11a2.43,2.43,0,0,1-1.76,2.45c-2.69,1-5.33,2.08-8.25,3.23l1.22,1.78c2.46,3.58,2.53,6.18.1,9.71a2.43,2.43,0,0,0-.33,2.44A45.79,45.79,0,0,1,151.18,143a25.23,25.23,0,0,1-5.76,15.62,23.29,23.29,0,0,1-5.79,4.63,54.58,54.58,0,0,1-6.54,3.14,2.19,2.19,0,0,0-1.46,1.47c-1.57,5.56-5.46,8.48-11,9.48C120.31,177.4,120,177.54,119.36,177.73Zm-81-69.5c4.32,1.44,8.58,3,12.93,4.27,9.51,2.74,19.31,3.65,29.15,3.9,12.39.31,24.79.43,37.18-.25a115.27,115.27,0,0,0,24.1-3.62,98.71,98.71,0,0,0,14.15-5.07,49.11,49.11,0,0,0-.13-10.78A52,52,0,0,0,150,80.33C144.4,69.45,136.3,61,125.19,55.65A71.68,71.68,0,0,0,105,49.57c-3.4-.54-6.82-1.2-10.28-.75s-7.13.94-10.64,1.69c-7.87,1.7-15.38,4.39-22.05,9C50.83,67.33,43.73,78.11,39.63,91A40.1,40.1,0,0,0,38.31,108.23Zm58.52,26.58c5.71-.25,11.44-.33,17.13-.8,6.13-.51,12.27-1.16,18.33-2.17a25.43,25.43,0,0,0,14.51-7.71c2.95-3.1,3-5.6.36-9-1.15-1.47-1.55-1.64-3.39-1.1a114,114,0,0,1-25.35,4.11,379.34,379.34,0,0,1-44,0,91.6,91.6,0,0,1-10.28-1c-5-.86-10-2.06-15.07-3.06a3,3,0,0,0-2,.2,6.09,6.09,0,0,0-1.19,9.08,25.33,25.33,0,0,0,4.39,4,29.82,29.82,0,0,0,13.44,5.09A250.17,250.17,0,0,0,96.83,134.81ZM69.21,151.75c0-3.16-.38-6.2-.14-9.05,2.3,0,4.35,0,6.4,0a5.59,5.59,0,0,0,2.35-.29c5.82-2.95,11.78-2.72,17.75-.78a12.77,12.77,0,0,0,5.36.38c3-.27,6.07-.67,9-.15A47.87,47.87,0,0,0,121,143c.12,0,.25.11.68.33v6.13c3.71,0,6.82-.72,9.42-3.12a3.19,3.19,0,0,0,1.27-2.42c0-2.79.16-5.57.21-8.36a11.39,11.39,0,0,0-.2-1.58,229,229,0,0,1-74-.48c.13,4.82.23,9.36.42,13.89a2.72,2.72,0,0,0,.91,1.64C62.31,151.49,65.53,152,69.21,151.75Zm-6.42,18.7a7,7,0,0,0,.66,1.17,8.76,8.76,0,0,0,4.54,3,35.58,35.58,0,0,0,7.56,1.25c13.28.12,26.57.09,39.85,0a20.44,20.44,0,0,0,8.39-1.57,9.39,9.39,0,0,0,5.7-6.73c-.83.13-1.47.2-2.11.32a34.52,34.52,0,0,1-9,.54c-2.48-.18-5-.33-7.46-.35-8.51-.06-17,0-25.54-.1a12.71,12.71,0,0,0-4.51.74c-5.61,2-11.35,2.92-17.3,1.7A4.31,4.31,0,0,0,62.79,170.45Zm34.16-133c2.13-.23,3.68-.3,5.17-.61a7.06,7.06,0,0,0,2.51-1.2c3.06-2.18,2.59-10.4.16-12.32-.23-.18-.45-.37-.67-.57-2.53-2.24-5.46-2.57-8.64-1.91a9.19,9.19,0,0,0-5.64,13.88,5.25,5.25,0,0,0,2.74,2A25.56,25.56,0,0,0,96.95,37.44ZM52.09,163.94c4.54,3.17,11.5,5.08,17.73,5,2.16,0,2.32-.17,2.71-2.28a10.37,10.37,0,0,0,.12-1.09c.32-4-1.13-7.47-3.21-10.75a2,2,0,0,0-1.17-.83c-2.28-.38-4.59-.65-7-1A21.46,21.46,0,0,1,52.09,163.94Zm68.85-12.28c-.49.93-1,1.9-1.49,2.83-1.69,3-2.91,6.06-2.71,9.57.12,2,.16,2.18,2.28,2.33a32.7,32.7,0,0,0,14.18-2.24c1.11-.43,2.15-1,3.31-1.59-3.75-3.14-4.58-3.22-8.91-11.66ZM98.55,216.94l26.7-.58a9.75,9.75,0,0,0-8.53-8.54,27,27,0,0,0-10.49.34A9.52,9.52,0,0,0,98.55,216.94Zm-6.93-.58a9.32,9.32,0,0,0-5.36-7.45c-4.41-2.26-13.44-1.77-17.59,1a9.48,9.48,0,0,0-3.73,7.06Zm37.59-66A18.67,18.67,0,0,0,137,161a2.15,2.15,0,0,0,2.61,0c4.53-2.66,6.87-6.8,8.4-11.94-5.07.66-9.86.66-14-2.46Zm-87.36-.14c1.37,4.66,3,8.75,6.69,11.65,1.56,1.21,2.07,1.16,3.77.24,2.14-1.16,3.51-3.06,5-4.85A11.09,11.09,0,0,0,59.9,152l-4.66-4.24C51.29,150.7,46.76,150.73,41.85,150.23Zm64.28.15A6.9,6.9,0,0,0,101.2,146a8.26,8.26,0,0,1-2.2-1c-2-1.2-3.62-.49-5.15.88-2.12,1.91-2.74,4.38-2.81,7.13a2.29,2.29,0,0,0,1.46,2.37c2.84,1.51,5.61,3.16,8.41,4.74.49.28,1,.51,1.42.71.58-1.84,1.08-3.59,1.7-5.29S105.39,152.18,106.12,150.38ZM70.9,153.81c1,2.6,2.21,4.78,2.7,7.1a47.84,47.84,0,0,1,.44,7.46,4.34,4.34,0,0,0,1.06-.1c2.72-.84,5.42-1.76,8.16-2.56,1.66-.48,2-1.57,2.06-3.13.09-2.84-1.32-5.21-2.12-7.77a2.93,2.93,0,0,0-2.73-2.09C77.16,152.19,74.18,153.72,70.9,153.81Zm64-8.37c3.88,2.88,8.2,2.91,12.64,2.15a1.5,1.5,0,0,0,1.31-1.54c.13-2,.33-4.08.31-6.12,0-1.7-.33-3.4-.56-5.56-3.37,3.58-7.58,4.2-11.56,5.26Zm-41.24-2-.24-.6a69.45,69.45,0,0,0-7-.59,15.07,15.07,0,0,0-7.58,1.93,5.64,5.64,0,0,0-2.81,6.35A25.89,25.89,0,0,1,89,153.42C89,149.18,90.34,145.84,93.67,143.43Zm-40.6-2.61c-4-.9-7.91-1.56-11.46-4.44-.14,4.4-1.24,8.25-.08,12.07,4.19,1.4,10.66.62,13.08-2.21Zm54.12,10.64c-.83,2.08-1.62,3.86-2.26,5.7a23.22,23.22,0,0,0-.8,3.39,1.62,1.62,0,0,0,1.24,2c2.83,1,5.65,2,8.48,3a9,9,0,0,0,1.68.19c-.61-4.06.4-7.65,2.33-11.34A10.62,10.62,0,0,1,107.19,151.46ZM52.71,139.29l1.35-7.42c-1.51-.87-3.13-1.71-4.64-2.71s-3-2.24-4.55-3.45a32.25,32.25,0,0,0-2.59,7.06,2.6,2.6,0,0,0,1.11,3.17C46.14,138,49.39,138.48,52.71,139.29ZM102.08,144c.43.26.64.49.88.53,2,.32,3,1.75,4.1,3.31a17.24,17.24,0,0,0,3.24,3.52,6.72,6.72,0,0,0,7,.72,1.84,1.84,0,0,0,1-2.34,6.88,6.88,0,0,0-4.6-4.88A19.81,19.81,0,0,0,102.08,144Zm7,22.63c-.15-.24-.19-.42-.28-.46a53.08,53.08,0,0,1-10.56-5.3A1.86,1.86,0,0,0,96,161c-2.64,1.57-5.29,3.11-7.93,4.69a9.69,9.69,0,0,0-1.11,1ZM83.67,191.69v-6.46H73.06v6.46Zm53.67-53.53c2.17-.63,4.17-1.09,6.06-1.82a7.81,7.81,0,0,0,4.22-3.34,3.38,3.38,0,0,0,.43-2,34.43,34.43,0,0,0-.94-3.71l-10,5.73C137.15,134.56,137.24,136.16,137.34,138.16ZM73.1,199H83.81v-5.73H73.1Zm44.32-7.58v-5.8H106.76v5.8Zm-.18-7.53v-5.89H106.61v5.89Zm-33.65-6H72.9v5.6H83.59Zm23.17,20.92,10.69-.35v-5.38H106.77ZM117.6,200l-10.58.34v5.32H117.6Zm-44.34,5.67H83.92v-4.92H73.26Zm21.47-46.58c-2.71-2.09-8.49-4.86-10.17-4.87.9,3.14,2.72,6,2,10A76.47,76.47,0,0,0,94.73,159.08ZM99.5,46.7V39.52H94.83V46.7ZM75,144.15l-4.54-.3a44.5,44.5,0,0,0,.34,7.89l2.45-.32Zm-18.75-.46v-9.83H55.8A13.25,13.25,0,0,0,56.26,143.7Zm61.36.78L120.1,148v-3.67ZM135,134.41l-.27-.07v3.51H135Z" transform="translate(-35.85 -18.36)"/><path class="cls-3" d="M38.31,108.23A40.1,40.1,0,0,1,39.63,91c4.1-12.9,11.2-23.68,22.44-31.48,6.67-4.63,14.18-7.32,22.05-9,3.51-.76,7.08-1.23,10.64-1.69s6.88.21,10.28.75a71.68,71.68,0,0,1,20.14,6.08C136.3,61,144.4,69.45,150,80.33a52,52,0,0,1,5.68,16.34,49.11,49.11,0,0,1,.13,10.78,98.71,98.71,0,0,1-14.15,5.07,115.27,115.27,0,0,1-24.1,3.62c-12.39.68-24.79.56-37.18.25-9.84-.25-19.64-1.16-29.15-3.9C46.89,111.25,42.63,109.67,38.31,108.23ZM71.85,87.79c1.69,0,3.3,0,4.91,0a4.42,4.42,0,0,0,1.51-.15c.35-.13.87-.66.81-.85a1.78,1.78,0,0,0-.93-1,4.41,4.41,0,0,0-1.52-.07L58,85.66c-1,0-1.91-.14-2.85-.07a1.18,1.18,0,0,0-.87.74,1.22,1.22,0,0,0,.6,1,5.19,5.19,0,0,0,1.71.29c1.58.1,3.16.17,4.69.25.64,3.31,1.85,4.65,4.32,5C68.26,93.15,70.11,91.72,71.85,87.79Zm47.57,0c1.4,3.68,3.31,5.24,5.91,5s3.77-1.48,4.67-5c1.86-.1,3.76-.17,5.65-.3.68,0,1.38-.28,1.32-1.14s-.83-.83-1.5-.82l-21.32.15a3.37,3.37,0,0,0-1.3.1c-.34.15-.77.58-.78.89a1.26,1.26,0,0,0,.74.91,5.53,5.53,0,0,0,1.73.18C116.16,87.8,117.76,87.79,119.42,87.79ZM95.75,96.72v.21c-2.86,0-5.72,0-8.58,0a5.45,5.45,0,0,0-1.73.16,1.34,1.34,0,0,0-.68.93c0,.22.35.66.63.75a4.84,4.84,0,0,0,1.52.15l17.6-.14c.29,0,.65.09.86,0,.39-.25.94-.63,1-1s-.52-.8-.92-1a3.31,3.31,0,0,0-1.3-.06Z" transform="translate(-35.85 -18.36)"/><path class="cls-4" d="M96.83,134.81a250.17,250.17,0,0,1-33.11-2.44,29.82,29.82,0,0,1-13.44-5.09,25.33,25.33,0,0,1-4.39-4,6.09,6.09,0,0,1,1.19-9.08,3,3,0,0,1,2-.2c5,1,10,2.19,15.07,3.06a91.6,91.6,0,0,0,10.28,1,379.34,379.34,0,0,0,44,0A114,114,0,0,0,143.79,114c1.83-.54,2.24-.37,3.39,1.1,2.63,3.38,2.58,5.88-.36,9a25.43,25.43,0,0,1-14.51,7.71c-6.06,1-12.2,1.66-18.33,2.17C108.27,134.48,102.54,134.56,96.83,134.81Z" transform="translate(-35.85 -18.36)"/><path class="cls-3" d="M69.21,151.75c-3.68.26-6.9-.27-9.57-2.71a2.72,2.72,0,0,1-.91-1.64c-.2-4.53-.29-9.07-.42-13.89a229,229,0,0,0,74,.48,11.39,11.39,0,0,1,.2,1.58c-.06,2.79-.17,5.57-.21,8.36a3.19,3.19,0,0,1-1.27,2.42c-2.6,2.4-5.71,3.13-9.42,3.12v-6.13c-.43-.21-.56-.33-.68-.33a47.87,47.87,0,0,1-11.08-1.15c-2.89-.52-6-.13-9,.15a12.77,12.77,0,0,1-5.36-.38c-6-1.94-11.94-2.17-17.75.78a5.59,5.59,0,0,1-2.35.29c-2,0-4.1,0-6.4,0C68.83,145.56,69.22,148.59,69.21,151.75Z" transform="translate(-35.85 -18.36)"/><path class="cls-3" d="M62.79,170.45a4.31,4.31,0,0,1,.81,0c5.94,1.21,11.69.32,17.3-1.7A12.71,12.71,0,0,1,85.4,168c8.51.06,17,0,25.54.1,2.49,0,5,.18,7.46.35a34.52,34.52,0,0,0,9-.54c.63-.12,1.27-.2,2.11-.32a9.39,9.39,0,0,1-5.7,6.73,20.44,20.44,0,0,1-8.39,1.57c-13.28.06-26.57.09-39.85,0A35.58,35.58,0,0,1,68,174.59a8.76,8.76,0,0,1-4.54-3A7,7,0,0,1,62.79,170.45Z" transform="translate(-35.85 -18.36)"/><path class="cls-3" d="M96.95,37.44a25.56,25.56,0,0,1-4.37-.73,5.25,5.25,0,0,1-2.74-2,9.19,9.19,0,0,1,5.64-13.88c3.18-.66,6.11-.33,8.64,1.91.22.19.44.38.67.57,2.43,1.92,2.9,10.14-.16,12.32a7.06,7.06,0,0,1-2.51,1.2C100.62,37.15,99.08,37.21,96.95,37.44Z" transform="translate(-35.85 -18.36)"/><path class="cls-4" d="M52.09,163.94a21.46,21.46,0,0,0,9.2-11c2.39.33,4.69.6,7,1a2,2,0,0,1,1.17.83c2.08,3.28,3.53,6.75,3.21,10.75a10.37,10.37,0,0,1-.12,1.09c-.4,2.11-.56,2.24-2.71,2.28C63.59,169,56.63,167.11,52.09,163.94Z" transform="translate(-35.85 -18.36)"/><path class="cls-4" d="M120.94,151.66l6.67-.75c4.34,8.44,5.16,8.52,8.91,11.66-1.16.56-2.2,1.16-3.31,1.59A32.7,32.7,0,0,1,119,166.4c-2.12-.15-2.17-.29-2.28-2.33-.2-3.51,1-6.6,2.71-9.57C120,153.56,120.45,152.59,120.94,151.66Z" transform="translate(-35.85 -18.36)"/><path class="cls-3" d="M98.55,216.94a9.52,9.52,0,0,1,7.69-8.79,27,27,0,0,1,10.49-.34,9.75,9.75,0,0,1,8.53,8.54Z" transform="translate(-35.85 -18.36)"/><path class="cls-3" d="M91.62,216.36l-26.69.58a9.48,9.48,0,0,1,3.73-7.06c4.16-2.73,13.19-3.23,17.59-1A9.32,9.32,0,0,1,91.62,216.36Z" transform="translate(-35.85 -18.36)"/><path class="cls-4" d="M129.2,150.37l4.8-3.79c4.17,3.12,9,3.12,14,2.46-1.53,5.14-3.87,9.28-8.4,11.94a2.15,2.15,0,0,1-2.61,0A18.67,18.67,0,0,1,129.2,150.37Z" transform="translate(-35.85 -18.36)"/><path class="cls-4" d="M41.85,150.23c4.91.5,9.44.47,13.39-2.43L59.9,152a11.09,11.09,0,0,1-2.55,5.23c-1.52,1.78-2.9,3.69-5,4.85-1.7.92-2.22,1-3.77-.24C44.82,159,43.22,154.89,41.85,150.23Z" transform="translate(-35.85 -18.36)"/><path class="cls-4" d="M106.12,150.38c-.73,1.8-1.47,3.46-2.1,5.18s-1.12,3.46-1.7,5.29c-.4-.2-.92-.43-1.42-.71-2.8-1.59-5.57-3.24-8.41-4.74A2.29,2.29,0,0,1,91,153c.07-2.74.69-5.22,2.81-7.13,1.53-1.37,3.16-2.08,5.15-.88a8.26,8.26,0,0,0,2.2,1A6.9,6.9,0,0,1,106.12,150.38Z" transform="translate(-35.85 -18.36)"/><path class="cls-4" d="M70.9,153.81c3.27-.09,6.26-1.62,9.57-1.1a2.93,2.93,0,0,1,2.73,2.09c.81,2.56,2.21,4.94,2.12,7.77,0,1.56-.41,2.65-2.06,3.13-2.74.79-5.44,1.72-8.16,2.56a4.34,4.34,0,0,1-1.06.1,47.84,47.84,0,0,0-.44-7.46C73.11,158.58,71.93,156.41,70.9,153.81Z" transform="translate(-35.85 -18.36)"/><path class="cls-4" d="M134.9,145.44l2.13-5.81c4-1.06,8.19-1.68,11.56-5.26.23,2.16.54,3.86.56,5.56,0,2-.18,4.08-.31,6.12a1.5,1.5,0,0,1-1.31,1.54C143.1,148.35,138.79,148.32,134.9,145.44Z" transform="translate(-35.85 -18.36)"/><path class="cls-3" d="M93.67,143.43c-3.33,2.41-4.7,5.75-4.66,10a25.89,25.89,0,0,0-12.93-2.89,5.64,5.64,0,0,1,2.81-6.35,15.07,15.07,0,0,1,7.58-1.93,69.45,69.45,0,0,1,7,.59Z" transform="translate(-35.85 -18.36)"/><path class="cls-4" d="M53.07,140.82l1.54,5.41c-2.42,2.83-8.89,3.61-13.09,2.21-1.15-3.82-.05-7.67.08-12.07C45.16,139.26,49.1,139.92,53.07,140.82Z" transform="translate(-35.85 -18.36)"/><path class="cls-4" d="M107.19,151.46a10.62,10.62,0,0,0,10.66,2.92c-1.93,3.69-2.94,7.28-2.33,11.34a9,9,0,0,1-1.68-.19c-2.83-1-5.65-2-8.48-3a1.62,1.62,0,0,1-1.24-2,23.22,23.22,0,0,1,.8-3.39C105.57,155.33,106.35,153.54,107.19,151.46Z" transform="translate(-35.85 -18.36)"/><path class="cls-4" d="M52.71,139.29c-3.32-.81-6.58-1.26-9.31-3.35a2.6,2.6,0,0,1-1.11-3.17,32.25,32.25,0,0,1,2.59-7.06c1.57,1.2,3,2.41,4.55,3.45s3.13,1.84,4.64,2.71Z" transform="translate(-35.85 -18.36)"/><path class="cls-3" d="M102.08,144a19.81,19.81,0,0,1,11.61.85,6.88,6.88,0,0,1,4.6,4.88,1.84,1.84,0,0,1-1,2.34,6.72,6.72,0,0,1-7-.72,17.24,17.24,0,0,1-3.24-3.52c-1.06-1.56-2.08-3-4.1-3.31C102.71,144.5,102.5,144.28,102.08,144Z" transform="translate(-35.85 -18.36)"/><path class="cls-3" d="M109.1,166.64H87a9.69,9.69,0,0,1,1.11-1c2.64-1.57,5.29-3.12,7.93-4.69a1.86,1.86,0,0,1,2.23-.09,53.08,53.08,0,0,0,10.56,5.3C108.91,166.22,108.95,166.4,109.1,166.64Z" transform="translate(-35.85 -18.36)"/><path class="cls-4" d="M83.67,191.69H73.06v-6.46H83.67Z" transform="translate(-35.85 -18.36)"/><path class="cls-4" d="M137.34,138.16c-.1-2-.18-3.6-.26-5.15l10-5.73A34.43,34.43,0,0,1,148,131a3.38,3.38,0,0,1-.43,2,7.81,7.81,0,0,1-4.22,3.34C141.5,137.06,139.51,137.52,137.34,138.16Z" transform="translate(-35.85 -18.36)"/><path class="cls-4" d="M73.1,199v-5.73H83.81V199Z" transform="translate(-35.85 -18.36)"/><path class="cls-4" d="M117.42,191.47H106.76v-5.8h10.66Z" transform="translate(-35.85 -18.36)"/><path class="cls-4" d="M117.24,183.94H106.61v-5.89h10.63Z" transform="translate(-35.85 -18.36)"/><path class="cls-4" d="M83.59,178v5.6H72.9V178Z" transform="translate(-35.85 -18.36)"/><path class="cls-4" d="M106.77,198.91v-5.73h10.69v5.38Z" transform="translate(-35.85 -18.36)"/><path class="cls-4" d="M117.6,200v5.66H107v-5.32Z" transform="translate(-35.85 -18.36)"/><path class="cls-4" d="M73.26,205.66v-4.92H83.92v4.92Z" transform="translate(-35.85 -18.36)"/><path class="cls-4" d="M94.73,159.08a76.47,76.47,0,0,1-8.14,5.09c.69-3.92-1.12-6.83-2-10C86.24,154.22,92,157,94.73,159.08Z" transform="translate(-35.85 -18.36)"/><path class="cls-4" d="M99.5,46.7H94.83V39.52H99.5Z" transform="translate(-35.85 -18.36)"/><path class="cls-3" d="M75,144.15l-1.75,7.27-2.45.32a44.5,44.5,0,0,1-.34-7.89Z" transform="translate(-35.85 -18.36)"/><path class="cls-5" d="M56.26,143.7a13.25,13.25,0,0,1-.45-9.82h.45Z" transform="translate(-35.85 -18.36)"/><path class="cls-3" d="M117.62,144.47l2.48-.14V148Z" transform="translate(-35.85 -18.36)"/><path class="cls-5" d="M135,134.41v3.44h-.27v-3.51Z" transform="translate(-35.85 -18.36)"/><path class="cls-2" d="M71.85,87.79c-1.74,3.93-3.59,5.36-6.3,5-2.47-.31-3.68-1.65-4.32-5-1.52-.08-3.11-.14-4.69-.25a5.19,5.19,0,0,1-1.71-.29,1.22,1.22,0,0,1-.6-1,1.18,1.18,0,0,1,.87-.74c.94-.07,1.9.07,2.85.07l18.68.06a4.41,4.41,0,0,1,1.52.07,1.78,1.78,0,0,1,.93,1c.06.19-.46.71-.81.85a4.42,4.42,0,0,1-1.51.15C75.15,87.8,73.54,87.79,71.85,87.79Z" transform="translate(-35.85 -18.36)"/><path class="cls-2" d="M119.42,87.79c-1.66,0-3.26,0-4.86,0a5.53,5.53,0,0,1-1.73-.18,1.26,1.26,0,0,1-.74-.91c0-.31.43-.73.78-.89a3.37,3.37,0,0,1,1.3-.1l21.32-.15c.67,0,1.43-.11,1.5.82s-.64,1.09-1.32,1.14c-1.89.13-3.79.21-5.65.3-.91,3.54-2.13,4.83-4.67,5S120.82,91.47,119.42,87.79Z" transform="translate(-35.85 -18.36)"/><path class="cls-2" d="M95.75,96.72h8.36a3.31,3.31,0,0,1,1.3.06c.4.19.94.66.92,1s-.57.73-1,1c-.21.14-.57,0-.86,0l-17.6.14a4.84,4.84,0,0,1-1.52-.15c-.28-.09-.67-.53-.63-.75a1.34,1.34,0,0,1,.68-.93,5.45,5.45,0,0,1,1.73-.16c2.86,0,5.72,0,8.58,0Z" transform="translate(-35.85 -18.36)"/></svg>