<svg id="Capa_4" data-name="Capa 4" xmlns="http://www.w3.org/2000/svg" viewBox="0 0 132.29 223.2"><defs><style>.cls-1{fill:#d1d1d1;}.cls-2,.cls-3,.cls-4,.cls-5,.cls-6,.cls-7{fill-rule:evenodd;}.cls-3,.cls-5{fill:#aadbe8;}.cls-3{stroke:#231f20;stroke-miterlimit:10;stroke-width:2px;}.cls-4{fill:#93b9b5;}.cls-6{fill:#ece769;}.cls-7{fill:#fff;}.cls-8{fill:#231f20;}</style></defs><title>coolito4</title><ellipse class="cls-1" cx="66.14" cy="215.87" rx="47.33" ry="7.33"/><path class="cls-2" d="M43.66,113.18c-2.6-1-4.89-2-7.25-2.79a2.68,2.68,0,0,1-2-2.75,49.23,49.23,0,0,1,5.12-25.79c5.25-11,12.79-19.81,23.34-25.92A68.91,68.91,0,0,1,85.68,48.1c1.73-.31,3.46-.58,5.41-.9,0-.71,0-1.35,0-2-.08-1.54-.74-2.08-2.26-1.83a4.55,4.55,0,0,0-.84.26c-2.23.82-4.11.6-5.65-1.49A3.72,3.72,0,0,0,80.1,41c-1.14-.2-2.36.06-3.51-.12a7.54,7.54,0,0,1-3-1.09,3,3,0,0,1-.38-4.63c.58-.66,1.3-1.2,1.83-1.89.88-1.15.78-1.64-.3-2.61a14,14,0,0,1-2.06-1.95c-1.53-2.08-1.12-4,1-5.45,2.52-1.68,2.75-2.3,2-5.25a12.59,12.59,0,0,1-.4-1.93,4.51,4.51,0,0,1,4-4.94,10,10,0,0,1,1.54,0c2.61,0,2.93-.15,3.67-2.71.54-1.87,1.14-3.63,3-4.69s3.08-1,4.75.45c2,1.81,2.37,1.85,4.77.28,1.92-1.26,3.79-2.48,6.27-2.25,1.88.18,2.61.61,3.24,2.39.12.34.17.72.3,1.06A2.7,2.7,0,0,0,110,7.54c.72-.12,1.41-.41,2.12-.57a6.54,6.54,0,0,1,6.84,3.3,2.75,2.75,0,0,1-.23,2.91c-.49.73-1,1.43-1.46,2.2-1.15,2.06-.79,3.35,1.16,4.66a14.24,14.24,0,0,1,2.58,2c1.54,1.67,1.46,3.16-.07,4.83a11.77,11.77,0,0,0-1.4,1.68,2.34,2.34,0,0,0,.39,3.34c1.16,1.22,2.21,2.53,1.51,4.29s-2.32,2.3-4.13,2.34a10.71,10.71,0,0,0-2.17.31,3.89,3.89,0,0,0-2.94,2.68c-1.28,3.6-2.14,4-5.91,2.79a2.5,2.5,0,0,0-1.68-.15c-1.49.85-2.79.46-4.31-.57v3.47c3.12.64,6.28,1.19,9.4,1.94,7.6,1.83,14.91,4.44,21.42,8.88,10.13,6.92,17.07,16.33,21.76,27.59a48.39,48.39,0,0,1,3.46,22.18,2.13,2.13,0,0,1-1.55,2.1c-2.74,1-5.45,2.14-8.41,3.31.51.74,1,1.38,1.4,2,2.48,3.69,2.39,7-.73,10.17a4.91,4.91,0,0,0-1.4,5.25q4.17,16.87,8.12,33.79c.8,3.42,1.24,6.93,2.12,10.33s2.15,6.84,3.2,10.27a26.79,26.79,0,0,1,1,3.82,3.8,3.8,0,0,1-3.39,4.34,20.4,20.4,0,0,0-3,.75c-.85.19-1.73.3-2.59.42-1.51.2-3.05.27-4.54.58-2.91.61-5.22-.54-5.75-3.53a41.56,41.56,0,0,1-.34-7.87c0-1.74.43-3.48.63-5.22a3.71,3.71,0,0,0-.07-1.3q-3.84-15.37-7.7-30.73a3.49,3.49,0,0,0-.39-.62,12.43,12.43,0,0,0-.36,1.46c-.66,6.2-1.17,12.41-2,18.58-.9,6.75-4.52,10.45-11.16,12-.49.11-1,.27-1.63.45,0,.84,0,1.63,0,2.42.12,8.14.28,16.29.34,24.43a2.81,2.81,0,0,0,1.7,2.93c3.65,1.83,5.28,5.13,6.09,8.94a8.81,8.81,0,0,1,0,1.66c-2.28.14-4.46.34-6.64.4-7.19.18-14.38.3-21.57.44h-.66c-2.33-.07-2.86-.72-2.27-3,1-4.1,3.06-7.46,7.26-9a9.92,9.92,0,0,0,.91-.44c.34-2.58-.14-26.33-.56-28.16-2.94-.66-14.25-.68-18.38.11.16,9.32.32,18.69.49,28.21,4.88,2.2,7.44,6,7.83,11.53-2.48.15-4.73.34-7,.4-7,.17-14.08.29-21.13.43-.44,0-.88,0-1.32,0-1.76-.12-2.24-.65-1.9-2.38.83-4.14,2.62-7.63,6.76-9.41.53-.23,1-.51,1.71-.84q-.24-14.39-.49-28.76c-.69-.21-1.17-.37-1.66-.49-6-1.47-9.34-5.41-10.17-11.35-.9-6.46-1.46-13-2.16-19.45,0-.29-.07-.58-.16-1.35a18.23,18.23,0,0,0-.75,1.89c-2.36,9.38-4.67,18.79-7.08,28.16-.54,2.09.19,4,.24,6.07.05,2.42.19,4.83.19,7.25a8,8,0,0,1-.48,2.58,4.31,4.31,0,0,1-5.54,3,30.76,30.76,0,0,0-5-.7,36.94,36.94,0,0,1-6.41-1.37,3.51,3.51,0,0,1-2.23-3.9,19.8,19.8,0,0,1,.92-3.83c1-3.29,2.54-6.48,3.12-9.84,2.75-15.92,8.13-31.23,10.85-47.15a3.74,3.74,0,0,0-.63-3.23c-2-2.72-1.91-5.59-.18-8.43C42.46,114.93,43,114.16,43.66,113.18Zm-7-4.68c4.4,1.46,8.67,3,13,4.29,9.73,2.79,19.75,3.65,29.81,3.91,7.48.2,15,.12,22.45.14a194.51,194.51,0,0,0,24.59-1.36,100.34,100.34,0,0,0,26.26-7.07,2.07,2.07,0,0,0,1.56-2.08c0-2.42.14-4.85,0-7.25-.49-6.64-2.94-12.69-5.94-18.52-5.61-10.89-13.72-19.32-24.85-24.66a71.81,71.81,0,0,0-20.15-6.06c-3.4-.53-6.82-1.19-10.28-.74s-7,.92-10.42,1.66c-7.95,1.7-15.53,4.41-22.26,9.09C49.35,67.57,42.32,78.22,38.15,90.94,36.31,96.56,36.19,102.3,36.68,108.5Zm58.63,26.59c5.71-.25,11.44-.33,17.14-.8,6.06-.5,12.12-1.16,18.12-2.14a25.58,25.58,0,0,0,14.72-7.79c2.9-3.05,3-5.42.42-8.79-1.21-1.62-1.63-1.79-3.54-1.23a113.86,113.86,0,0,1-25.35,4.1,377.13,377.13,0,0,1-43.77,0,98.6,98.6,0,0,1-10.72-1.09c-4.91-.83-9.76-2-14.64-3-.8-.17-1.52-.42-2.29.17a6.14,6.14,0,0,0-1.08,9.12,25.2,25.2,0,0,0,4.41,3.94,29.88,29.88,0,0,0,13.45,5.07A249.26,249.26,0,0,0,95.31,135.09Zm35.63-.82a229.23,229.23,0,0,1-74.15-.47c0,.6,0,1,0,1.32-.22,10.08,1.06,20.05,2.32,30,.79,6.24,4.33,9.69,10.57,10.6a35.6,35.6,0,0,0,5,.43q19.15.05,38.3,0a35.3,35.3,0,0,0,5.26-.46c6.16-1,9.49-4.32,10.38-10.51.36-2.47.43-5,.86-7.43a122.28,122.28,0,0,0,1.42-19.29C131,137.19,130.94,135.89,130.94,134.28ZM100.28,42c.68.34,1.19.64,1.73.86.39.15,1,.42,1.2.25,1.53-1,2.92-.36,4.39.13,1.91.63,2.62.25,3.2-1.8a5.46,5.46,0,0,1,4.84-4.17,20.2,20.2,0,0,1,2.19-.21,2.42,2.42,0,0,0,2.31-1.41c.42-.95-.15-1.68-.75-2.36-.15-.16-.31-.31-.46-.47-1.53-1.68-1.7-3.28-.45-5.16a14.86,14.86,0,0,1,1.71-2,1.55,1.55,0,0,0,.09-2.35,17.27,17.27,0,0,0-2.69-2.21c-2.37-1.62-2.95-3.75-1.57-6.29a27.54,27.54,0,0,1,1.56-2.4,1.55,1.55,0,0,0,0-1.84,5.14,5.14,0,0,0-5.11-2.27c-.64.13-1.26.4-1.91.52-2.65.5-4.41-.55-5.26-3.1-.72-2.15-.89-2.33-3.12-2.12a7.7,7.7,0,0,0-2.67.86,32.87,32.87,0,0,0-3,1.88,3.35,3.35,0,0,1-3.92-.06,12.37,12.37,0,0,1-1.36-1.11c-1.21-1-1.83-1.19-3.1-.24a7.07,7.07,0,0,0-1.85,2.34c-.47.89-.61,2-1,2.9-.77,1.84-1.76,2.43-3.76,2.35-.51,0-1-.11-1.54-.09a3.24,3.24,0,0,0-3.27,4.15c.13.65.38,1.27.52,1.91.59,2.76,0,4.17-2.45,5.68-.19.12-.38.22-.56.35-1.24.94-1.47,1.95-.55,3.22a11.13,11.13,0,0,0,1.89,1.81c1.73,1.49,1.9,2.75.53,4.55a7.8,7.8,0,0,1-1.2,1.28c-.84.7-1.52,1.46-1,2.63a2.58,2.58,0,0,0,2.52,1.45c1,0,2.05,0,3.08,0a4.54,4.54,0,0,1,4.16,2,2.51,2.51,0,0,0,2.89,1c1.41-.27,2.82-.59,4.36-.92v-2a34.55,34.55,0,0,1-4.1-3.13c-2.27-2.33-2.58-8.92-.82-11.69,2.28-3.58,5.21-5.75,9.61-6,6.68-.39,11.38,3.71,11.49,10.35a19,19,0,0,1-.09,2.86c-.49,3.62-2.08,6.39-5.91,7.34a5.41,5.41,0,0,0-.86.4Zm-4.87-4.31c2.12-.24,3.67-.32,5.17-.61A6.1,6.1,0,0,0,102.92,36c3.42-2.5,2.77-10.89,0-12.76a2.92,2.92,0,0,1-.35-.27c-2.59-2.34-5.64-2.61-8.85-1.84a9.17,9.17,0,0,0-5.27,14A5,5,0,0,0,91,37,29.16,29.16,0,0,0,95.41,37.73ZM90,216.66a9.75,9.75,0,0,0-8.52-8.55,27,27,0,0,0-10.49.33,9.52,9.52,0,0,0-7.69,8.79Zm33.66,0a9,9,0,0,0-5.17-7.4c-4.46-2.34-13.63-1.84-17.79,1a8.9,8.9,0,0,0-3.52,7Zm-90-39.77a3.89,3.89,0,0,0-.48.69c-.91,2.7-1.85,5.38-2.69,8.1a9.39,9.39,0,0,0-.47,3,1.94,1.94,0,0,0,1,1.51c2.1.58,4.24,1,6.38,1.38,1.35.25,2.75.25,4.09.54,2.31.51,3.5-.16,3.93-2.46A28.69,28.69,0,0,0,45,179.22,17.13,17.13,0,0,1,33.63,176.89Zm109.3,2.94c-.21,2.29-.48,4.39-.57,6.49a20.07,20.07,0,0,0,.3,3.93c.37,2.33,1.61,3.09,3.87,2.51a7.33,7.33,0,0,1,2.55-.54c2.58.35,4.88-.78,7.32-1.14,1.31-.19,1.69-.76,1.68-2.14a5.8,5.8,0,0,0-.25-1.73c-1-3.12-2.1-6.23-3.17-9.33,0-.09-.23-.13-.46-.25A16.75,16.75,0,0,1,142.93,179.82ZM51.7,148.43,54,140l-11-3.18-2.06,9C44.4,147.15,47.75,148.38,51.7,148.43Zm-16,17.28c3.5,1.77,7.11,2.19,10.86,3l2.18-9.06L38,156.94Zm114.36-8.12-10.83,2.73,2.21,9c3.8-.82,7.42-1.18,10.82-3Zm-2.92-11.16-2.08-9-11,3.2L136.3,149C140.18,149.11,143.56,147.81,147.15,146.43ZM136.8,150.9l2.06,7.85a46.46,46.46,0,0,0,10.79-2.82l-2.09-7.85ZM38.34,155.4a56.57,56.57,0,0,0,10.84,2.68c.67-2.83,1.56-5.35,1.91-7.87l-10.66-2.79ZM141.8,170.88c.48,2.11.87,4,1.41,5.93a1.74,1.74,0,0,0,1.13,1.08,13,13,0,0,0,9-2.17,1.58,1.58,0,0,0,.61-1.26c-.36-2.14-.84-4.25-1.26-6.29ZM35.33,167.5c-.39,1.94-.7,3.81-1.18,5.64a1.81,1.81,0,0,0,1.06,2.31,13.43,13.43,0,0,0,8.22,1.77,1.78,1.78,0,0,0,1.31-.85c.57-2,1-4.06,1.45-6.14Zm7.94-32.33a62.65,62.65,0,0,0,11.3,3.32v-5.27l-9.79-5.58Zm28.15,56.67c2.91.47,9.32.35,10.69-.12v-6.23H71.42Zm73.31-56.14-1.32-6.53-10.28,4.89a7.66,7.66,0,0,0,.77,5.17C137.45,137.93,141.24,137.65,144.73,135.7ZM71.56,193.56v5.79H82.2v-5.79Zm44.12-15.16h-10.9c.24,2.15-.21,4,.47,6a104,104,0,0,0,10.43-.21Zm.11,7.5H105.15v5.85h10.63Zm-44.48-2H82v-5.58H71.31Zm44.63,9.52H105.27v5.77l10.68-.35Zm-10.59,12.51h10.76a32,32,0,0,0,0-5.35H105.36Zm-23-4.92H71.59a14,14,0,0,0,.3,4.92H82.35ZM93.22,47h4.88a67.29,67.29,0,0,0-.1-7.28c-1.49,0-2.73,0-4,0a4.25,4.25,0,0,0-.82.18Z" transform="translate(-27.87 -2.17)"/><path class="cls-3" d="M36.68,108.5c-.49-6.2-.37-11.94,1.47-17.57,4.17-12.71,11.2-23.36,22.29-31.08,6.73-4.68,14.31-7.39,22.26-9.09,3.44-.73,6.93-1.2,10.42-1.66s6.88.21,10.28.74a71.81,71.81,0,0,1,20.15,6.06c11.12,5.35,19.24,13.77,24.85,24.66,3,5.83,5.45,11.88,5.94,18.52.18,2.4,0,4.83,0,7.25a2.07,2.07,0,0,1-1.56,2.08,100.34,100.34,0,0,1-26.26,7.07A194.51,194.51,0,0,1,102,116.85c-7.48,0-15,.05-22.45-.14-10.06-.26-20.08-1.12-29.81-3.91C45.35,111.55,41.08,110,36.68,108.5Zm103.81-21c0-9.37-7.15-16.59-16.27-16.54S108,78.25,108,87.81c0,9,7.25,15.87,16.75,15.84A15.89,15.89,0,0,0,140.49,87.46Zm-88.11-.2c-.09,9.45,6.91,16.36,16.6,16.4A16,16,0,0,0,84.81,88c.12-9.6-6.77-17-16-17.1A16.2,16.2,0,0,0,52.37,87.26Zm43.12,17.6c3.88.2,6.78-1.3,9.48-3.27a6.77,6.77,0,0,0,1.44-1.64c.39-.56.66-1.32-.15-1.67a1.6,1.6,0,0,0-1.42.51,10,10,0,0,1-5.45,3.5c-3.58,1.06-7.09.81-10.18-1.6-.75-.58-1.43-1.25-2.19-1.83-.55-.43-1.28-.73-1.66.07a1.7,1.7,0,0,0,.43,1.46C88.54,103.24,91.78,105.05,95.49,104.86Z" transform="translate(-27.87 -2.17)"/><path class="cls-4" d="M95.31,135.09a249.26,249.26,0,0,1-33.12-2.43,29.88,29.88,0,0,1-13.45-5.07,25.2,25.2,0,0,1-4.41-3.94,6.14,6.14,0,0,1,1.08-9.12c.76-.59,1.49-.34,2.29-.17,4.87,1,9.73,2.17,14.64,3a98.6,98.6,0,0,0,10.72,1.09,377.13,377.13,0,0,0,43.77,0,113.86,113.86,0,0,0,25.35-4.1c1.9-.56,2.32-.38,3.54,1.23,2.53,3.37,2.47,5.74-.42,8.79a25.58,25.58,0,0,1-14.72,7.79c-6,1-12.06,1.64-18.12,2.14C106.75,134.77,101,134.85,95.31,135.09Z" transform="translate(-27.87 -2.17)"/><path class="cls-5" d="M130.94,134.28c0,1.61,0,2.91,0,4.22a122.28,122.28,0,0,1-1.42,19.29c-.43,2.45-.51,5-.86,7.43-.9,6.19-4.23,9.56-10.38,10.51a35.3,35.3,0,0,1-5.26.46q-19.15.06-38.3,0a35.6,35.6,0,0,1-5-.43c-6.24-.91-9.78-4.36-10.57-10.6-1.26-10-2.54-19.94-2.32-30,0-.36,0-.72,0-1.32A229.23,229.23,0,0,0,130.94,134.28ZM68.74,167.73c16.86.8,33.4.87,49.89.46.92-5.46,1.72-22.8,1.19-24.66l-52.45-.47C67.47,151.22,68.32,159.36,68.74,167.73Z" transform="translate(-27.87 -2.17)"/><path class="cls-6" d="M100.28,42V39.8a5.41,5.41,0,0,1,.86-.4c3.84-.95,5.42-3.72,5.91-7.34a19,19,0,0,0,.09-2.86c-.1-6.64-4.81-10.74-11.49-10.35-4.4.26-7.33,2.43-9.61,6-1.76,2.77-1.46,9.35.82,11.69a34.55,34.55,0,0,0,4.1,3.13v2c-1.54.33-3,.65-4.36.92a2.51,2.51,0,0,1-2.89-1,4.54,4.54,0,0,0-4.16-2c-1,0-2.06,0-3.08,0a2.58,2.58,0,0,1-2.52-1.45c-.51-1.17.16-1.93,1-2.63a7.8,7.8,0,0,0,1.2-1.28c1.37-1.8,1.2-3.06-.53-4.55a11.13,11.13,0,0,1-1.89-1.81c-.92-1.27-.69-2.28.55-3.22.17-.13.37-.23.56-.35,2.42-1.51,3-2.92,2.45-5.68-.14-.64-.38-1.27-.52-1.91A3.24,3.24,0,0,1,80,12.48c.51,0,1,.07,1.54.09,2,.08,3-.51,3.76-2.35.39-.94.53-2,1-2.9A7.07,7.07,0,0,1,88.17,5c1.27-1,1.89-.8,3.1.24a12.37,12.37,0,0,0,1.36,1.11,3.35,3.35,0,0,0,3.92.06,32.87,32.87,0,0,1,3-1.88,7.7,7.7,0,0,1,2.67-.86c2.23-.21,2.4,0,3.12,2.12.86,2.55,2.61,3.6,5.26,3.1.65-.12,1.26-.39,1.91-.52a5.14,5.14,0,0,1,5.11,2.27,1.55,1.55,0,0,1,0,1.84,27.54,27.54,0,0,0-1.56,2.4c-1.38,2.54-.8,4.66,1.57,6.29a17.27,17.27,0,0,1,2.69,2.21,1.55,1.55,0,0,1-.09,2.35,14.86,14.86,0,0,0-1.71,2c-1.25,1.87-1.08,3.47.45,5.16.15.16.31.31.46.47.6.68,1.17,1.42.75,2.36a2.42,2.42,0,0,1-2.31,1.41,20.2,20.2,0,0,0-2.19.21,5.46,5.46,0,0,0-4.84,4.17c-.58,2-1.29,2.43-3.2,1.8-1.47-.49-2.86-1.15-4.39-.13-.24.16-.82-.1-1.2-.25C101.46,42.68,101,42.38,100.28,42Z" transform="translate(-27.87 -2.17)"/><path class="cls-5" d="M95.41,37.73A29.16,29.16,0,0,1,91,37,5,5,0,0,1,88.4,35.2a9.17,9.17,0,0,1,5.27-14c3.21-.78,6.26-.5,8.85,1.84a2.92,2.92,0,0,0,.35.27c2.81,1.87,3.46,10.26,0,12.76a6.1,6.1,0,0,1-2.34,1.07C99.07,37.42,97.53,37.5,95.41,37.73Z" transform="translate(-27.87 -2.17)"/><path class="cls-5" d="M90,216.66l-26.7.57A9.52,9.52,0,0,1,71,208.44a27,27,0,0,1,10.49-.33A9.75,9.75,0,0,1,90,216.66Z" transform="translate(-27.87 -2.17)"/><path class="cls-5" d="M123.65,216.66l-26.49.57a8.9,8.9,0,0,1,3.52-7c4.16-2.81,13.33-3.31,17.79-1A9,9,0,0,1,123.65,216.66Z" transform="translate(-27.87 -2.17)"/><path class="cls-5" d="M33.63,176.89A17.13,17.13,0,0,0,45,179.22a28.69,28.69,0,0,1,.41,10.43c-.42,2.29-1.62,3-3.93,2.46-1.34-.29-2.74-.29-4.09-.54-2.14-.39-4.29-.8-6.38-1.38a1.94,1.94,0,0,1-1-1.51,9.39,9.39,0,0,1,.47-3c.84-2.72,1.78-5.4,2.69-8.1A3.89,3.89,0,0,1,33.63,176.89Z" transform="translate(-27.87 -2.17)"/><path class="cls-5" d="M142.93,179.82a16.75,16.75,0,0,0,11.27-2.19c.22.12.42.15.46.25,1.07,3.1,2.14,6.21,3.17,9.33a5.8,5.8,0,0,1,.25,1.73c0,1.38-.37,1.95-1.68,2.14-2.44.35-4.74,1.49-7.32,1.14a7.33,7.33,0,0,0-2.55.54c-2.26.58-3.5-.18-3.87-2.51a20.07,20.07,0,0,1-.3-3.93C142.45,184.21,142.72,182.12,142.93,179.82Z" transform="translate(-27.87 -2.17)"/><path class="cls-4" d="M51.7,148.43c-4-.05-7.3-1.29-10.84-2.68l2.06-9L54,140Z" transform="translate(-27.87 -2.17)"/><path class="cls-4" d="M35.71,165.71,38,156.94l10.8,2.72-2.18,9.06C42.83,167.9,39.22,167.49,35.71,165.71Z" transform="translate(-27.87 -2.17)"/><path class="cls-4" d="M150.08,157.59l2.2,8.75c-3.4,1.84-7,2.2-10.82,3l-2.21-9Z" transform="translate(-27.87 -2.17)"/><path class="cls-4" d="M147.15,146.43c-3.59,1.38-7,2.68-10.85,2.61L134,140.65l11-3.2Z" transform="translate(-27.87 -2.17)"/><path class="cls-4" d="M136.8,150.9l10.76-2.82,2.09,7.85a46.46,46.46,0,0,1-10.79,2.82Z" transform="translate(-27.87 -2.17)"/><path class="cls-4" d="M38.34,155.4l2.09-8,10.66,2.79c-.35,2.52-1.24,5-1.91,7.87A56.57,56.57,0,0,1,38.34,155.4Z" transform="translate(-27.87 -2.17)"/><path class="cls-4" d="M141.8,170.88l10.87-2.71c.42,2,.91,4.16,1.26,6.29a1.58,1.58,0,0,1-.61,1.26,13,13,0,0,1-9,2.17,1.74,1.74,0,0,1-1.13-1.08C142.67,174.92,142.28,173,141.8,170.88Z" transform="translate(-27.87 -2.17)"/><path class="cls-4" d="M35.33,167.5l10.87,2.73c-.48,2.08-.88,4.13-1.45,6.14a1.78,1.78,0,0,1-1.31.85,13.43,13.43,0,0,1-8.22-1.77,1.81,1.81,0,0,1-1.06-2.31C34.63,171.31,34.94,169.44,35.33,167.5Z" transform="translate(-27.87 -2.17)"/><path class="cls-4" d="M43.27,135.17l1.51-7.54,9.79,5.58v5.27A62.65,62.65,0,0,1,43.27,135.17Z" transform="translate(-27.87 -2.17)"/><path class="cls-4" d="M71.42,191.84v-6.36H82.11v6.23C80.74,192.19,74.33,192.31,71.42,191.84Z" transform="translate(-27.87 -2.17)"/><path class="cls-4" d="M144.73,135.7c-3.49,1.94-7.27,2.23-10.83,3.52a7.66,7.66,0,0,1-.77-5.17l10.28-4.89Z" transform="translate(-27.87 -2.17)"/><path class="cls-4" d="M71.56,193.56H82.2v5.79H71.56Z" transform="translate(-27.87 -2.17)"/><path class="cls-4" d="M115.67,178.4v5.78a104,104,0,0,1-10.43.21c-.68-2-.23-3.84-.47-6Z" transform="translate(-27.87 -2.17)"/><path class="cls-4" d="M115.79,185.91v5.85H105.15v-5.85Z" transform="translate(-27.87 -2.17)"/><path class="cls-4" d="M71.31,183.92v-5.58H82v5.58Z" transform="translate(-27.87 -2.17)"/><path class="cls-4" d="M115.94,193.43v5.42l-10.68.35v-5.77Z" transform="translate(-27.87 -2.17)"/><path class="cls-4" d="M105.36,205.95V200.6h10.73a32,32,0,0,1,0,5.35Z" transform="translate(-27.87 -2.17)"/><path class="cls-4" d="M82.35,201v4.92H71.89a14,14,0,0,1-.3-4.92Z" transform="translate(-27.87 -2.17)"/><path class="cls-4" d="M93.22,47V39.88A4.25,4.25,0,0,1,94,39.7c1.24,0,2.48,0,4,0a67.29,67.29,0,0,1,.1,7.28Z" transform="translate(-27.87 -2.17)"/><path class="cls-2" d="M95.49,104.86c-3.71.19-7-1.63-9.71-4.47a1.7,1.7,0,0,1-.43-1.46c.39-.8,1.11-.49,1.66-.07.75.58,1.44,1.25,2.19,1.83,3.09,2.41,6.6,2.66,10.18,1.6a10,10,0,0,0,5.45-3.5,1.6,1.6,0,0,1,1.42-.51c.81.35.54,1.11.15,1.67a6.77,6.77,0,0,1-1.44,1.64C102.27,103.56,99.38,105.06,95.49,104.86Z" transform="translate(-27.87 -2.17)"/><path class="cls-2" d="M68.74,167.73c-.42-8.37-1.28-16.51-1.37-24.67l52.45.47c.53,1.86-.27,19.19-1.19,24.66C102.14,168.59,85.6,168.53,68.74,167.73ZM118.85,145l-50-.46c.15,7.2.82,14.41,1.26,21.57,3.77,1.06,44.27,1.37,47.44.36Z" transform="translate(-27.87 -2.17)"/><path class="cls-7" d="M66.64,73.39a14.53,14.53,0,0,0-.93,2,19.12,19.12,0,0,0-1,4.23c-.26,4.56,2.53,7.84,7.07,8.56s7.17-.61,9.35-4.72c.2-.37.4-.73.65-1.18A14.06,14.06,0,0,1,78.25,98a14.58,14.58,0,0,1-17.57,1.33c-5.62-3.59-7.53-9.68-5.64-16.86C56.27,77.81,62.17,73.28,66.64,73.39Z" transform="translate(-27.87 -2.17)"/><path class="cls-5" d="M118.85,145l-1.34,21.46c-3.17,1-43.67.7-47.44-.36-.44-7.16-1.11-14.37-1.26-21.57ZM98.79,155.67a4.73,4.73,0,0,0-4.85-5.1,5.38,5.38,0,0,0-5.45,5.21c-.07,2.79,2.2,4.86,5.36,4.9A4.78,4.78,0,0,0,98.79,155.67Z" transform="translate(-27.87 -2.17)"/><path class="cls-2" d="M98.79,155.67a4.78,4.78,0,0,1-4.95,5c-3.16,0-5.42-2.11-5.36-4.9a5.38,5.38,0,0,1,5.45-5.21A4.73,4.73,0,0,1,98.79,155.67Zm-1.42,0A3.27,3.27,0,0,0,93.9,152a4,4,0,0,0-4.05,3.8c0,1.94,1.73,3.47,4,3.46A3.37,3.37,0,0,0,97.37,155.64Z" transform="translate(-27.87 -2.17)"/><path class="cls-4" d="M97.37,155.64a3.37,3.37,0,0,1-3.51,3.63c-2.29,0-4.07-1.52-4-3.46A4,4,0,0,1,93.9,152,3.27,3.27,0,0,1,97.37,155.64Z" transform="translate(-27.87 -2.17)"/><circle class="cls-8" cx="40.77" cy="78.1" r="4.19"/><circle class="cls-8" cx="97.58" cy="78.55" r="4.19"/></svg>