<svg id="Capa_3" data-name="Capa 3" xmlns="http://www.w3.org/2000/svg" viewBox="0 0 126.4 206.76"><defs><style>.cls-1{fill:#d1d1d1;}.cls-2,.cls-3,.cls-4,.cls-5,.cls-6{fill-rule:evenodd;}.cls-3{fill:#aadbe8;}.cls-4{fill:#ec6065;}.cls-5{fill:#93b9b5;}.cls-6{fill:#fff;}.cls-7{fill:#231f20;}</style></defs><title>coolito3</title><ellipse class="cls-1" cx="59.74" cy="199.43" rx="47.33" ry="7.33"/><path class="cls-2" d="M105.52,206c-.13-7.07-.26-14.1-.39-21.41-.59.38-1,.6-1.37.88-1.92,1.47-3.87,2.91-5.73,4.46a3.42,3.42,0,0,1-4.62,0c-1.84-1.33-3.59-2.79-5.38-4.18l-1.39-1.05c-.06.73-.12,1.14-.11,1.55.08,6.16.21,12.33.24,18.49a2.33,2.33,0,0,0,1.49,2.38c3.65,1.81,5.41,5,6.25,8.84a12.55,12.55,0,0,1,.1,1.94c-2,.11-3.88.27-5.76.31-7.55.17-15.11.31-22.66.46-.37,0-.74,0-1.1,0-1.53-.12-2.08-.63-1.79-2.09.77-3.85,2.22-7.31,6-9.25.78-.4,1.57-.77,2.5-1.23-.13-9.57-.27-19.15-.4-28.84-5.31-1.13-9.45-3.48-11.17-9-1.05.38-1.93.68-2.8,1a19,19,0,0,1-12.34.33,15.61,15.61,0,0,1-9.58-8.27c-3.31-6.76-2.9-13.5.93-20C39.34,136.46,42.78,132,47.8,129a6.6,6.6,0,0,0,.71-.54c-.88-1-1.69-2-2.57-3-3.75-4-4-7-.85-11.58.25-.36.48-.73.82-1.25-2.4-.94-4.67-1.93-7-2.72a2.78,2.78,0,0,1-2.18-3c0-4.77-.34-9.55,1-14.22,4.38-15.83,12.93-28.66,27.25-37.18A66.58,66.58,0,0,1,86.6,47.85c2.15-.42,4.31-.74,6.58-1.13V38.86a15.18,15.18,0,0,1-2.78-1.56,8.35,8.35,0,0,1-2.18-2.7c-3.71-8.28,2.19-15.72,9-16.24a11.78,11.78,0,0,1,8.47,2.25A7.8,7.8,0,0,1,109.1,26a25.85,25.85,0,0,1,0,6.75,7.13,7.13,0,0,1-5.59,6.12,9.62,9.62,0,0,0-.92.34V46.5c4.07.9,8,1.63,11.91,2.65,8.52,2.25,16.48,5.71,23.29,11.48a61.34,61.34,0,0,1,20.35,33.91c1,4.12.68,8.32.6,12.5a2.26,2.26,0,0,1-1.68,2.27c-2.14.78-4.24,1.63-6.36,2.47-.6.24-1.19.51-1.91.81.64,1,1.23,1.78,1.75,2.64,1.91,3.13,1.78,6.15-.58,9-1.4,1.66-3.06,3.1-4.75,4.79.85.63,1.74,1.23,2.57,1.91,6,5,10.52,11,11.7,18.8,1.21,8.09-2.37,15.92-10.41,19.49-4.26,1.89-8.89,1.65-13.35.14-1.1-.37-2.18-.79-3.47-1.26-1.83,5.91-6.27,8.36-12.14,9.33,0,9.61.49,19.18.4,28.94,4.92,2.17,7.47,6,7.91,11.6-2.08.11-4,.27-5.84.31-7.55.17-15.11.31-22.67.46h-.66c-2.07-.06-2.56-.56-2.15-2.52.87-4.14,2.72-7.58,6.87-9.32.4-.17.79-.38,1.19-.57C105.2,206.26,105.26,206.21,105.52,206Zm51-98.7a54,54,0,0,0-.15-10.91,49.62,49.62,0,0,0-4.54-14C146.27,70.55,137.91,61.31,126,55.5a71.07,71.07,0,0,0-19-5.94c-4.56-.8-9.14-1.48-13.77-.73C89.44,49.45,85.66,50.05,82,51A57.77,57.77,0,0,0,62.7,59.35c-10,7-16.78,16.43-21.13,27.76a43,43,0,0,0-2.84,18.76,2.72,2.72,0,0,0,2,2.69A105.57,105.57,0,0,0,76.29,116a389.48,389.48,0,0,0,46.19-.33,100.15,100.15,0,0,0,26.43-5.38C151.46,109.36,154,108.32,156.52,107.32ZM124.05,149.5c1-6.89-.42-12.67-6.05-17.18-5-4-11.61-2.65-15.54,1.89a25.55,25.55,0,0,0-5.58,10.86,2.41,2.41,0,0,1-.21.85,2.54,2.54,0,0,1-1,.93c-.17.06-.6-.49-.85-.8a1.53,1.53,0,0,1-.19-.63,26,26,0,0,0-5-10.41,11.79,11.79,0,0,0-10.64-5c-2.6.17-4.53,1.51-6.4,3.09-5.25,4.43-5.93,10.23-5.15,16.62l6.28-.65a4.51,4.51,0,0,1,5,3.46,18.71,18.71,0,0,1,.61,8.26,4,4,0,0,1-3.36,3.58c-1.26.31-2.54.51-3.79.76,0,.24-.07.41,0,.52.14.34.31.66.48,1a35.45,35.45,0,0,0,8.2,10.26c4.29,3.78,8.74,7.38,13.15,11,1.42,1.17,1.79,1.2,3.26,0,3.7-2.89,7.44-5.73,11-8.81a69.28,69.28,0,0,0,7.25-7.35,67.08,67.08,0,0,0,4.47-6.7l-3.08-.83a3.88,3.88,0,0,1-3-3.34,18.32,18.32,0,0,1,.6-8.47,4.43,4.43,0,0,1,4.8-3.38C120.68,149.13,122.2,149.34,124.05,149.5Zm25.66-30.35a6.59,6.59,0,0,0-1.68-4c-1.29-1.75-1.64-1.89-3.67-1.31a115.15,115.15,0,0,1-25.13,4,320.14,320.14,0,0,1-33,.46c-7-.33-14.07-.65-21.05-1.46-5.07-.59-10.05-2-15.07-3-.76-.16-1.48-.58-2.3,0a6.22,6.22,0,0,0-1.49,8.93A25.49,25.49,0,0,0,51,127.1c4.39,3.15,9.46,4.48,14.74,5.33,2.75.44,4.92.16,7-1.87a8.66,8.66,0,0,1,3.82-2c5.8-1.5,10.5.57,14.33,4.89a2.54,2.54,0,0,0,2.19,1.11c1.68-.07,3.37-.09,5.06,0a3,3,0,0,0,2.56-1.27c2.91-3.21,6.44-5.23,10.94-5.2a12.18,12.18,0,0,1,8.66,3.73,3.94,3.94,0,0,0,3.94,1.21,47.3,47.3,0,0,1,5-.63,30.29,30.29,0,0,0,14.34-5.14A36.82,36.82,0,0,0,148.3,123,4.9,4.9,0,0,0,149.71,119.15ZM107.36,29.39a8.11,8.11,0,0,0-1.48-5.84c-3.51-4.31-10-3.82-12.94-1.51-3.36,2.61-4.43,6-3.48,10.14a5.75,5.75,0,0,0,4.68,4.65c3.16.72,6.26.2,9.34-.37a4.76,4.76,0,0,0,2.16-1.38C107.25,33.52,107.48,31.49,107.36,29.39ZM92.26,216.17c-.78-4.61-3.6-7.68-8.16-8.43-2.7-.45-5.52-.17-8.29-.18a12,12,0,0,0-6,1.84c-2.74,1.54-3.58,4.2-4.58,7.3Zm7,.52,26.71-.52a9.76,9.76,0,0,0-8.06-8.48,25.38,25.38,0,0,0-10.89.26C102.41,208.94,99.81,212,99.22,216.69Zm35.27-62.61a19.32,19.32,0,0,0,6.83,1.75c2.92.28,6.45-3.63,4.8-7.1a35.07,35.07,0,0,0-2.14-4.07c-2.08-3.19-5.07-5.32-8.57-7.16C135.09,143.15,134.8,148.55,134.49,154.08ZM56.92,137.94A19.57,19.57,0,0,0,46.64,149.3c-.91,2.58,1.19,6.06,3.86,6.4a13.1,13.1,0,0,0,7.36-1.29Zm65.68,25.25,0-.08a7,7,0,0,0,2,0,3.75,3.75,0,0,0,2-1.13,12.13,12.13,0,0,0,2.24-6.55c.05-1.85-.61-3-2.43-3.37a53.61,53.61,0,0,0-7.14-.84c-1.69-.11-2.75.59-3,2.24a50.92,50.92,0,0,0-.46,7,2,2,0,0,0,1.9,2.06ZM71.77,151.25c0-.06,0-.12,0-.18-1.71.3-3.46.49-5.13.94s-2.46,1.55-2.4,3.41A12.42,12.42,0,0,0,66.45,162,2.49,2.49,0,0,0,68.2,163c2.4-.09,4.79-.37,7.18-.64a2.12,2.12,0,0,0,1.92-2.29,34.93,34.93,0,0,0-.05-4.37c-.34-4-1.38-4.83-5.26-4.51Zm52.11-16.16a50,50,0,0,1,2.22,7.22,45,45,0,0,1,.08,7.08l6.27,3.63a167,167,0,0,0,.73-19.22ZM59,133.26c.2,6.81,0,13.36,1,20.19a27.94,27.94,0,0,1,2.89-1.82c1.84-.85,2.44-2.11,2.2-4.16A18.43,18.43,0,0,1,66.49,138c.45-1.05,1-2.05,1.59-3.2Zm87.39,34.8a16.33,16.33,0,0,0,9.47-8,1.85,1.85,0,0,0-.22-2.05,14.75,14.75,0,0,0-7-5.33l-3.6,4.57A15.72,15.72,0,0,1,146.42,168.06Zm-99.88-.15a15.62,15.62,0,0,1,1.37-10.67l-3.6-4.55A15.58,15.58,0,0,0,38,157c-1.46,1.66-1.54,2.45-.33,4.28a17.6,17.6,0,0,0,7,6.13A11.18,11.18,0,0,0,46.54,167.91ZM122,165.15c-1.1,1.86-2.08,3.67-3.22,5.38s-2.38,3.21-3.75,5a20.8,20.8,0,0,0,9.75-1.65,9.16,9.16,0,0,0,5.4-6.72l-3.12-2.35Zm-76-20a6.25,6.25,0,0,0-1.1-.75,11.86,11.86,0,0,0-6.9-.43,2.25,2.25,0,0,0-1.27,1.29,17.57,17.57,0,0,0-1.38,8.56c.11,1,.41,1.89.72,3.25a19.2,19.2,0,0,1,7.83-5.84Zm110.78,11.77a14.4,14.4,0,0,0,.28-8.73c-1.12-4.53-1.62-4.9-6.32-4.42-1.44.15-2.92.23-3.83,1.48l2.08,6A19.68,19.68,0,0,1,156.83,156.93ZM76,175.43l-6.89-10.28L66,164.78l-3.7,2.65C62.94,173,69.79,175.94,76,175.43Zm59.64-8.52a13.34,13.34,0,0,0,7.5,1.44,2,2,0,0,0,2-1.89,12,12,0,0,0-1.62-8.71h-5.32C138.51,161.16,137.31,164.11,135.68,166.91Zm-86.4-9a12,12,0,0,0-1.5,8.63c.14.79.4,1.57,1.42,1.72a14.39,14.39,0,0,0,8.2-1.2,16.59,16.59,0,0,1-2.77-9.4Zm24.45,33.54H84.36V185H73.73ZM38.3,141.94l.35.42c2.87-.2,5.7-.11,8.26,1.44l4.33-4.91c-1.53-2.63-3.93-3.71-6.67-4.22a1.68,1.68,0,0,0-1.28.63C41.59,137.5,40,139.73,38.3,141.94Zm116.58.45c-1.42-2-2.51-3.77-3.77-5.36-2.23-2.82-1.7-3-5.61-1.44a5.53,5.53,0,0,0-3.65,3.48l4.27,4.77C148.73,142.19,151.51,142.21,154.88,142.39Zm-36.77,42.88h-5.52l-5.16.05v5.93h10.68Zm.08,7.69H107.51v5.75l10.68-.38Zm-56.42-38-5.51,2.48a12.11,12.11,0,0,0,2.59,9.07c2.33-.82,4.35-1.61,5.46-3.18Zm12.09,38.2v5.69H84.6a16.76,16.76,0,0,0-.27-5.69Zm44.44,6.68c-3.75.06-7.27.13-10.91.45.11,1.95.21,3.58.3,5.17H118.3Zm-44.4,5.61H84.6V200.5H73.9ZM118,178.06c-4.46-1.61-7,1-9.55,3.56-.59.58-1.58,1-1,2.1H118Zm-65.5-39.87c1.07-.69,1.89-1.29,2.77-1.77a2.89,2.89,0,0,0,1.56-3.85c-1.63-.84-3.28-1.77-5-2.54a2.24,2.24,0,0,0-1.79.07c-1.48.87-2.85,1.92-4.56,3.1C48.36,134.37,50.93,135.43,52.49,138.19Zm31.69,45.33.26-.58c-1.83-1.63-3.65-3.28-5.5-4.89a1.35,1.35,0,0,0-.81-.28c-1.51,0-3,0-4.55,0v5.76h10.6Zm63.32-50.28c-1.43-1-2.51-1.8-3.56-2.59a1.73,1.73,0,0,0-2-.13c-1.78.86-3.61,1.59-5.44,2.35-1.37.57-1.59,1.25-.44,2.21,1.33,1.12,2.82,2.05,4.41,3.18C142,135.48,144.51,134.37,147.5,133.24Zm-52-94.06v7.25h4.7V39.17Zm38.63,117.17a12,12,0,0,0-.41,1.57c-.28,2.32-.55,4.65-.74,7a1.61,1.61,0,0,0,.46,1.27c.65.44,1.06-.15,1.37-.66,1.49-2.51,2.45-5.13,1.84-8.26Zm-5.48,7c.55.48,1.06,1.4,2.23,1.4.35-2.84.7-5.58,1-8.32.09-.74.13-1.48-.69-1.43ZM93.32,136.79l2.41,4.85,2.36-4.85Z" transform="translate(-33.27 -18.32)"/><path class="cls-3" d="M156.52,107.32c-2.57,1-5.06,2-7.61,3a100.15,100.15,0,0,1-26.43,5.38,389.48,389.48,0,0,1-46.19.33,105.57,105.57,0,0,1-35.57-7.43,2.72,2.72,0,0,1-2-2.69A43,43,0,0,1,41.57,87.1C45.93,75.78,52.69,66.33,62.7,59.35A57.77,57.77,0,0,1,82,51c3.69-.93,7.47-1.53,11.23-2.14,4.63-.76,9.21-.07,13.77.73a71.07,71.07,0,0,1,19,5.94c11.9,5.81,20.26,15,25.81,26.94a49.62,49.62,0,0,1,4.54,14A54,54,0,0,1,156.52,107.32ZM109.9,86c-.07,9.29,6.89,16.19,16.48,16.36,8.5.15,15.89-7.17,16-15.8.08-9.53-6.9-16.93-16.07-17.05A16.32,16.32,0,0,0,109.9,86ZM86.6,86.2c0-9.37-7.1-16.69-16.15-16.72S54.18,76.84,54.16,86.31c0,9,7.22,16,16.63,16A16,16,0,0,0,86.6,86.2Zm17.56,13h0a2.11,2.11,0,0,0,0-.22c-.05-.82.4-1.86-.8-2.22-.76-.23-1.12.45-1.25,2.12a47.44,47.44,0,0,1-.51,5.24c-.42,2.16-1.74,3.1-3.89,3.13a3.66,3.66,0,0,1-4.1-3.16,17.62,17.62,0,0,1-.34-2.61c-.1-1.17-.05-2.36-.25-3.5-.08-.46-.59-1.15-1-1.2-.85-.12-1,.65-1,1.35.12,1.9.19,3.81.43,5.7a6.18,6.18,0,0,0,12.29,0C103.94,102.23,104,100.69,104.16,99.16Z" transform="translate(-33.27 -18.32)"/><path class="cls-4" d="M124.05,149.5c-1.85-.16-3.37-.37-4.9-.39a4.43,4.43,0,0,0-4.8,3.38,18.32,18.32,0,0,0-.6,8.47,3.88,3.88,0,0,0,3,3.34l3.08.83a67.08,67.08,0,0,1-4.47,6.7,69.28,69.28,0,0,1-7.25,7.35c-3.53,3.08-7.28,5.92-11,8.81-1.47,1.15-1.84,1.12-3.26,0-4.41-3.64-8.86-7.24-13.15-11a35.45,35.45,0,0,1-8.2-10.26c-.17-.32-.34-.65-.48-1,0-.12,0-.28,0-.52,1.25-.25,2.53-.45,3.79-.76a4,4,0,0,0,3.36-3.58,18.71,18.71,0,0,0-.61-8.26,4.51,4.51,0,0,0-5-3.46l-6.28.65c-.78-6.4-.1-12.19,5.15-16.62,1.88-1.58,3.81-2.92,6.4-3.09a11.79,11.79,0,0,1,10.64,5,26,26,0,0,1,5,10.41,1.53,1.53,0,0,0,.19.63c.25.31.68.86.85.8a2.54,2.54,0,0,0,1-.93,2.41,2.41,0,0,0,.21-.85,25.55,25.55,0,0,1,5.58-10.86c3.94-4.54,10.58-5.86,15.54-1.89C123.63,136.83,125,142.61,124.05,149.5Zm-25.4,13.57c-.15-.2-.43-1-.87-1.07-.83-.22-1,.53-1.11,1.24a3.6,3.6,0,0,1-.23,1.06c-.54,1.22-1.58,1.33-2.32.21-.27-.41-.3-1-.61-1.38a4.29,4.29,0,0,0-1.16-.76c-.24.4-.69.79-.69,1.19a4.06,4.06,0,0,0,3.58,3.8C97,167.39,98.61,165.61,98.65,163.07ZM89,158.46a1.68,1.68,0,0,0-1.57-1.72A1.48,1.48,0,0,0,86,158.33a1.51,1.51,0,0,0,1.42,1.59A1.53,1.53,0,0,0,89,158.46Zm13.1.89c1.25,0,1.71-.49,1.78-1.36a1.37,1.37,0,0,0-1.34-1.63,1.25,1.25,0,0,0-1.29,1.45A4.53,4.53,0,0,0,102.09,159.35Z" transform="translate(-33.27 -18.32)"/><path class="cls-5" d="M149.71,119.15A4.9,4.9,0,0,1,148.3,123a36.82,36.82,0,0,1-4.73,4.22,30.29,30.29,0,0,1-14.34,5.14,47.3,47.3,0,0,0-5,.63,3.94,3.94,0,0,1-3.94-1.21,12.18,12.18,0,0,0-8.66-3.73c-4.5,0-8,2-10.94,5.2a3,3,0,0,1-2.56,1.27c-1.68-.08-3.37-.06-5.06,0a2.54,2.54,0,0,1-2.19-1.11c-3.84-4.32-8.54-6.39-14.33-4.89a8.66,8.66,0,0,0-3.82,2c-2,2-4.22,2.31-7,1.87-5.29-.85-10.35-2.17-14.74-5.33a25.49,25.49,0,0,1-4.68-4.27,6.22,6.22,0,0,1,1.49-8.93c.83-.56,1.54-.14,2.3,0,5,1,10,2.4,15.07,3,7,.81,14,1.14,21.05,1.46a320.14,320.14,0,0,0,33-.46,115.15,115.15,0,0,0,25.13-4c2-.58,2.39-.44,3.67,1.31A6.59,6.59,0,0,1,149.71,119.15Z" transform="translate(-33.27 -18.32)"/><path class="cls-3" d="M107.36,29.39c.12,2.09-.11,4.12-1.72,5.68a4.76,4.76,0,0,1-2.16,1.38c-3.08.57-6.18,1.09-9.34.37a5.75,5.75,0,0,1-4.68-4.65c-1-4.1.11-7.52,3.48-10.14,3-2.31,9.43-2.79,12.94,1.51A8.11,8.11,0,0,1,107.36,29.39Z" transform="translate(-33.27 -18.32)"/><path class="cls-3" d="M92.26,216.17l-27,.52c1-3.09,1.85-5.76,4.58-7.3a12,12,0,0,1,6-1.84c2.77,0,5.59-.26,8.29.18C88.66,208.49,91.48,211.57,92.26,216.17Z" transform="translate(-33.27 -18.32)"/><path class="cls-3" d="M99.22,216.69c.6-4.67,3.2-7.75,7.76-8.74a25.38,25.38,0,0,1,10.89-.26,9.76,9.76,0,0,1,8.06,8.48Z" transform="translate(-33.27 -18.32)"/><path class="cls-6" d="M134.49,154.08c.31-5.53.61-10.92.92-16.58,3.5,1.84,6.49,4,8.57,7.16a35.07,35.07,0,0,1,2.14,4.07c1.65,3.46-1.88,7.38-4.8,7.1A19.32,19.32,0,0,1,134.49,154.08Z" transform="translate(-33.27 -18.32)"/><path class="cls-6" d="M56.92,137.94l1,16.47a13.1,13.1,0,0,1-7.36,1.29c-2.68-.34-4.78-3.82-3.86-6.4A19.57,19.57,0,0,1,56.92,137.94Z" transform="translate(-33.27 -18.32)"/><path class="cls-3" d="M122.6,163.19l-5-.77a2,2,0,0,1-1.9-2.06,50.92,50.92,0,0,1,.46-7c.26-1.64,1.33-2.34,3-2.24a53.61,53.61,0,0,1,7.14.84c1.82.37,2.48,1.53,2.43,3.37a12.13,12.13,0,0,1-2.24,6.55,3.75,3.75,0,0,1-2,1.13,7,7,0,0,1-2,0Z" transform="translate(-33.27 -18.32)"/><path class="cls-3" d="M71.77,151.25l.22,0c3.88-.32,4.93.55,5.26,4.51a34.93,34.93,0,0,1,.05,4.37,2.12,2.12,0,0,1-1.92,2.29c-2.39.27-4.78.55-7.18.64A2.49,2.49,0,0,1,66.45,162a12.42,12.42,0,0,1-2.25-6.55c-.06-1.86.61-2.94,2.4-3.41s3.42-.64,5.13-.94C71.74,151.13,71.75,151.19,71.77,151.25Z" transform="translate(-33.27 -18.32)"/><path class="cls-3" d="M123.87,135.09l9.3-1.29a167,167,0,0,1-.73,19.22l-6.27-3.63a45,45,0,0,0-.08-7.08A50,50,0,0,0,123.87,135.09Z" transform="translate(-33.27 -18.32)"/><path class="cls-3" d="M59,133.26l9,1.54C67.5,136,66.94,137,66.49,138a18.43,18.43,0,0,0-1.33,9.47c.24,2.05-.37,3.31-2.2,4.16a27.94,27.94,0,0,0-2.89,1.82C59,146.62,59.23,140.07,59,133.26Z" transform="translate(-33.27 -18.32)"/><path class="cls-5" d="M146.42,168.06a15.72,15.72,0,0,0-1.36-10.82l3.6-4.57a14.75,14.75,0,0,1,7,5.33,1.85,1.85,0,0,1,.22,2.05A16.33,16.33,0,0,1,146.42,168.06Z" transform="translate(-33.27 -18.32)"/><path class="cls-5" d="M46.54,167.91a11.18,11.18,0,0,1-1.82-.52,17.6,17.6,0,0,1-7-6.13c-1.21-1.84-1.13-2.63.33-4.28a15.58,15.58,0,0,1,6.25-4.29l3.6,4.55A15.62,15.62,0,0,0,46.54,167.91Z" transform="translate(-33.27 -18.32)"/><path class="cls-3" d="M122,165.15l5.05-.32,3.12,2.35a9.16,9.16,0,0,1-5.4,6.72,20.8,20.8,0,0,1-9.75,1.65c1.37-1.82,2.64-3.37,3.75-5S120.94,167,122,165.15Z" transform="translate(-33.27 -18.32)"/><path class="cls-5" d="M46,145.16l-2.1,6.09a19.2,19.2,0,0,0-7.83,5.84c-.31-1.36-.61-2.29-.72-3.25a17.57,17.57,0,0,1,1.38-8.56A2.25,2.25,0,0,1,38.05,144a11.86,11.86,0,0,1,6.9.43A6.25,6.25,0,0,1,46,145.16Z" transform="translate(-33.27 -18.32)"/><path class="cls-5" d="M156.83,156.93A19.68,19.68,0,0,0,149,151.3l-2.08-6c.91-1.24,2.39-1.33,3.83-1.48,4.7-.48,5.2-.12,6.32,4.42A14.4,14.4,0,0,1,156.83,156.93Z" transform="translate(-33.27 -18.32)"/><path class="cls-3" d="M76,175.43c-6.25.52-13.1-2.47-13.74-8l3.7-2.65,3.15.37Z" transform="translate(-33.27 -18.32)"/><path class="cls-5" d="M135.68,166.91c1.62-2.8,2.83-5.75,2.58-9.15h5.32a12,12,0,0,1,1.63,8.71,2,2,0,0,1-2,1.89A13.34,13.34,0,0,1,135.68,166.91Z" transform="translate(-33.27 -18.32)"/><path class="cls-5" d="M49.29,157.9l5.35-.24a16.59,16.59,0,0,0,2.77,9.4,14.39,14.39,0,0,1-8.2,1.2c-1-.14-1.28-.93-1.42-1.72A12,12,0,0,1,49.29,157.9Z" transform="translate(-33.27 -18.32)"/><path class="cls-5" d="M73.73,191.43V185H84.36v6.42Z" transform="translate(-33.27 -18.32)"/><path class="cls-5" d="M38.3,141.94c1.65-2.21,3.29-4.45,5-6.62a1.68,1.68,0,0,1,1.28-.63c2.73.51,5.14,1.59,6.67,4.22l-4.33,4.91c-2.55-1.56-5.38-1.65-8.26-1.44Z" transform="translate(-33.27 -18.32)"/><path class="cls-5" d="M154.88,142.39c-3.37-.18-6.15-.2-8.75,1.44l-4.27-4.77a5.53,5.53,0,0,1,3.65-3.48c3.91-1.55,3.38-1.37,5.61,1.44C152.37,138.62,153.46,140.35,154.88,142.39Z" transform="translate(-33.27 -18.32)"/><path class="cls-5" d="M118.11,185.26v6H107.43v-5.93l5.16-.05Z" transform="translate(-33.27 -18.32)"/><path class="cls-5" d="M118.19,193v5.37l-10.68.38V193Z" transform="translate(-33.27 -18.32)"/><path class="cls-5" d="M61.76,154.91l2.55,8.38c-1.12,1.56-3.13,2.35-5.46,3.18a12.11,12.11,0,0,1-2.59-9.07Z" transform="translate(-33.27 -18.32)"/><path class="cls-5" d="M73.86,193.11H84.32a16.76,16.76,0,0,1,.27,5.69H73.86Z" transform="translate(-33.27 -18.32)"/><path class="cls-5" d="M118.3,199.79v5.63H107.68c-.09-1.59-.19-3.23-.3-5.17C111,199.92,114.55,199.84,118.3,199.79Z" transform="translate(-33.27 -18.32)"/><path class="cls-5" d="M73.9,205.39V200.5H84.6v4.89Z" transform="translate(-33.27 -18.32)"/><path class="cls-5" d="M118,178.06v5.67H107.45c-.58-1.12.41-1.52,1-2.1C111,179.1,113.53,176.45,118,178.06Z" transform="translate(-33.27 -18.32)"/><path class="cls-5" d="M52.49,138.19c-1.56-2.76-4.13-3.82-7-5,1.7-1.18,3.08-2.23,4.56-3.1a2.24,2.24,0,0,1,1.79-.07c1.72.77,3.36,1.69,5,2.54a2.89,2.89,0,0,1-1.56,3.85C54.38,136.9,53.56,137.5,52.49,138.19Z" transform="translate(-33.27 -18.32)"/><path class="cls-5" d="M84.18,183.52H73.58v-5.76c1.53,0,3,0,4.55,0a1.35,1.35,0,0,1,.81.28c1.85,1.61,3.67,3.26,5.5,4.89Z" transform="translate(-33.27 -18.32)"/><path class="cls-5" d="M147.5,133.24c-3,1.13-5.53,2.25-7.05,5-1.58-1.13-3.07-2.06-4.41-3.18-1.15-1-.93-1.65.44-2.21,1.83-.75,3.66-1.49,5.44-2.35a1.73,1.73,0,0,1,2,.13C145,131.44,146.07,132.2,147.5,133.24Z" transform="translate(-33.27 -18.32)"/><path class="cls-5" d="M95.49,39.17h4.7v7.25h-4.7Z" transform="translate(-33.27 -18.32)"/><path class="cls-5" d="M134.12,156.34l2.52.9c.61,3.12-.35,5.75-1.84,8.26-.3.51-.72,1.1-1.37.66a1.61,1.61,0,0,1-.46-1.27c.2-2.33.47-4.66.74-7A12,12,0,0,1,134.12,156.34Z" transform="translate(-33.27 -18.32)"/><path class="cls-5" d="M128.65,163.31l2.57-8.35c.83,0,3.92,1.65,3.83,2.38-.33,2.74-1,6.17-1.32,9C131.53,166.41,129.2,163.79,128.65,163.31Z" transform="translate(-33.27 -18.32)"/><path class="cls-3" d="M93.32,136.79h4.77l-2.36,4.85Z" transform="translate(-33.27 -18.32)"/><path class="cls-2" d="M109.9,86a16.32,16.32,0,0,1,16.37-16.5c9.17.12,16.14,7.52,16.07,17.05-.07,8.63-7.46,15.95-16,15.8C116.78,102.17,109.83,95.27,109.9,86Zm30.39.12c.64-9.42-8.09-14.69-14.78-14.51-7.68.21-13.58,6.54-13.55,14.83a14.17,14.17,0,0,0,28.34-.32Z" transform="translate(-33.27 -18.32)"/><path class="cls-2" d="M86.6,86.2a16,16,0,0,1-15.81,16.14c-9.41-.05-16.65-7-16.63-16,0-9.48,7.16-16.86,16.29-16.83S86.57,76.82,86.6,86.2Zm-2.05-.34c.58-9.25-8.17-14.46-14.79-14.27-7.83.22-13.66,6.69-13.54,15.3.1,7.42,6.6,13.46,14.37,13.36A13.83,13.83,0,0,0,84.55,85.85Z" transform="translate(-33.27 -18.32)"/><path class="cls-2" d="M104.16,99.16c-.14,1.53-.22,3.07-.42,4.59a6.18,6.18,0,0,1-12.29,0c-.24-1.89-.32-3.8-.43-5.7,0-.7.15-1.47,1-1.35.39.05.9.74,1,1.2.2,1.15.15,2.34.25,3.5a17.62,17.62,0,0,0,.34,2.61,3.66,3.66,0,0,0,4.1,3.16c2.15,0,3.47-1,3.89-3.13a47.44,47.44,0,0,0,.51-5.24c.13-1.67.49-2.35,1.25-2.12,1.2.35.75,1.4.8,2.22a2.11,2.11,0,0,1,0,.22Z" transform="translate(-33.27 -18.32)"/><path class="cls-2" d="M98.65,163.07c0,2.54-1.61,4.32-3.41,4.29a4.06,4.06,0,0,1-3.58-3.8c0-.4.45-.79.69-1.19a4.29,4.29,0,0,1,1.16.76c.3.38.33,1,.61,1.38.74,1.11,1.78,1,2.32-.21a3.6,3.6,0,0,0,.23-1.06c.08-.71.29-1.46,1.11-1.24C98.22,162.12,98.5,162.87,98.65,163.07Z" transform="translate(-33.27 -18.32)"/><path class="cls-2" d="M89,158.46a1.53,1.53,0,0,1-1.55,1.46A1.51,1.51,0,0,1,86,158.33a1.48,1.48,0,0,1,1.41-1.59A1.68,1.68,0,0,1,89,158.46Z" transform="translate(-33.27 -18.32)"/><path class="cls-2" d="M102.09,159.35a4.53,4.53,0,0,1-.86-1.54,1.25,1.25,0,0,1,1.29-1.45,1.37,1.37,0,0,1,1.34,1.63C103.8,158.86,103.35,159.32,102.09,159.35Z" transform="translate(-33.27 -18.32)"/><path class="cls-6" d="M140.28,86.1a14.17,14.17,0,0,1-28.34.32c0-8.3,5.87-14.62,13.55-14.83C132.19,71.41,140.92,76.68,140.28,86.1Zm-13.82,5.66c3.5,0,7.44-4.47,6.95-7.94-.09-.6-.24-1.21-1-1.16s-.93.64-.92,1.26a6,6,0,0,1-2.12,4.42,4.38,4.38,0,0,1-6.57-.21,5.42,5.42,0,0,1-1.53-4.19c0-.39-.57-.84-.89-1.26a5.86,5.86,0,0,0-1.06,1.18,2.78,2.78,0,0,0-.08,1.3C119.39,88.64,122.79,91.73,126.46,91.76Z" transform="translate(-33.27 -18.32)"/><path class="cls-6" d="M84.55,85.85a13.83,13.83,0,0,1-14,14.4c-7.76.1-14.26-5.94-14.37-13.36-.12-8.61,5.71-15.08,13.54-15.3C76.38,71.39,85.13,76.6,84.55,85.85ZM70.06,91.76c3.36,0,7-3.89,7-7.47,0-.72.06-1.61-1-1.62-.89,0-1,.75-1,1.43a5.61,5.61,0,0,1-1.65,3.72c-1.62,1.89-3.14,2.42-5.23,1.55a5.16,5.16,0,0,1-3.29-4.53,5.29,5.29,0,0,0,0-1.3c-.13-.35-.53-.79-.84-.82a1.17,1.17,0,0,0-1,.66A5.83,5.83,0,0,0,63,86C63.86,89,66,91.71,70.06,91.76Z" transform="translate(-33.27 -18.32)"/><circle class="cls-7" cx="37.11" cy="68.68" r="4.19"/><circle class="cls-7" cx="93.92" cy="69.13" r="4.19"/></svg>