<svg id="Capa_6" data-name="Capa 6" xmlns="http://www.w3.org/2000/svg" viewBox="0 0 180.49 208.01"><defs><style>.cls-1{fill:#d1d1d1;}.cls-2,.cls-3,.cls-4,.cls-5,.cls-6,.cls-7{fill-rule:evenodd;}.cls-3{fill:#aadbe8;}.cls-4{fill:#93b9b5;}.cls-5{fill:#fff;stroke:#231f20;stroke-miterlimit:10;stroke-width:2px;}.cls-6{fill:#595a5c;}.cls-7{fill:#ee8c8f;}.cls-8{fill:#231f20;}</style></defs><title>coolito6</title><ellipse class="cls-1" cx="84.8" cy="200.68" rx="74.33" ry="7.33"/><path class="cls-2" d="M99.52,38.7v7.08c3.23.66,6.4,1.21,9.52,2,9.44,2.28,18.3,5.81,25.81,12.21,10.61,9,17.18,20.47,20.28,34,.94,4.11.66,8.32.56,12.5a2.14,2.14,0,0,1-1.61,2.09c-2.74,1-5.46,2.14-8.36,3.29l1.39,2c2.48,3.7,2.28,6.85-.66,10.22a4.52,4.52,0,0,1-.75.8c-1.62,1.13-1.51,2.53-1,4.24a18,18,0,0,0,5.56,8.55c2.3,1.94,3.86,1.77,5.41-.77a27.16,27.16,0,0,0,2.54-5.58,106.83,106.83,0,0,0,4.87-25.66,2.45,2.45,0,0,0-.92-2.48,5.36,5.36,0,0,1-2-4.68A17.45,17.45,0,0,1,162,91a6.08,6.08,0,0,1,6.2-3.73A40.75,40.75,0,0,1,183.6,91.4a5.25,5.25,0,0,1,3.05,5.6,37.69,37.69,0,0,1-1.18,5.8c-.61,2.2-2.32,3.3-4.44,3.83a17.33,17.33,0,0,1-1.83.27,6.25,6.25,0,0,0-.23,1A140.3,140.3,0,0,1,173.78,138a44.16,44.16,0,0,1-5.4,12,15.39,15.39,0,0,1-11.84,7.48c-7.24.81-13.3-1.33-18.09-6.91a35.78,35.78,0,0,1-5-8,3.88,3.88,0,0,0-1.21-1.59c-.06.54-.13,1.09-.18,1.63q-.69,7.33-1.38,14.67c-.2,2.12-.38,4.24-.67,6.34-.65,4.8-2.5,8.88-7.06,11.26-.11.06-.16.22-.29.41l1.6,1.13c4,2.8,8.1,5.57,12.12,8.39a25,25,0,0,1,2.54,2.11c2.35,2.16,2.69,3.87,1.6,6.91-1.44,4-2.8,8-4.23,12.16,1.21.71,2.35,1.33,3.43,2,3.19,2.1,4.38,5.38,5.05,8.92a1.42,1.42,0,0,1-1.44,1.8,24,24,0,0,1-2.64.05c-5.94-.11-11.89-.21-17.83-.37-3.06-.08-6.12-.26-9.28-.4a4.86,4.86,0,0,1-.17-1.37c.75-3.9,2.31-7.34,6-9.22a5.73,5.73,0,0,0,3-3.54l3-9c-.77-.72-1.36-1.37-2-1.89q-10-7.6-20-15.14a3.66,3.66,0,0,0-2-.79q-9.9-.08-19.8,0a3.29,3.29,0,0,0-1.81.65q-10.37,7.81-20.69,15.69c-.53.4-1.08.76-1.65,1.16,1.1,3.36,2.08,6.35,3.07,9.33a5.7,5.7,0,0,0,3,3.54c3.65,1.83,5.23,5.18,6,9a6.32,6.32,0,0,1-.09,1.56c-2.3.14-4.48.33-6.66.38q-10.67.26-21.35.43c-3.29.05-3.74-.63-2.83-3.78a12.36,12.36,0,0,1,6.92-8.34c.2-.09.42-.14.61-.24a3.8,3.8,0,0,0,.51-.52c-1.3-3.79-2.59-7.75-4-11.66-1.33-3.68-1.17-5.34,1.94-7.72,4.6-3.52,9.41-6.75,14.15-10.09,1-.71,2.08-1.36,3.15-2.05-.15-.27-.2-.51-.35-.62-3.36-2.52-4.69-6.11-5.24-10.07s-1.05-8-1.44-12c-.37-3.79-.57-7.6-.87-11.76a11.69,11.69,0,0,0-1,1.22,36.63,36.63,0,0,1-7.3,9c-6.29,5.45-13.36,6.28-21,3.5a14.76,14.76,0,0,1-8.55-8.4,48,48,0,0,1-3.77-14.86,148,148,0,0,1-.57-24c.12-1.82.29-3.64.44-5.41-.17-.16-.26-.3-.38-.35-4.12-1.33-5.12-2.56-5.5-6.89a25.5,25.5,0,0,1-.11-3.52c.14-2.76,1.41-4.78,4.17-5.57A33.46,33.46,0,0,1,16,83.5,85,85,0,0,1,24.75,83c3.82,0,6,1.77,7,5.41A15.67,15.67,0,0,1,32.11,96a4.77,4.77,0,0,1-2.37,3.54c-1.33.65-1.46,1.71-1.55,2.88a105.79,105.79,0,0,0,.6,24.15c.28,1.81.64,3.61,1.06,5.39a10.79,10.79,0,0,0,1,2.45c1.18,2.27,2.41,2.68,4.65,1.45a17.51,17.51,0,0,0,7.92-9.39A2.44,2.44,0,0,0,43.1,125c-.16-.38-.57-.66-.86-1-2.85-3.31-3.05-6.42-.67-10L42.86,112c-.63-.29-1.13-.56-1.65-.76-1.78-.7-3.53-1.46-5.35-2-1.59-.5-2.11-1.41-2.13-3.06-.07-4.77-.33-9.56,1-14.22,4.4-15.83,13-28.67,27.29-37.16,7.08-4.2,14.89-6.51,23-7.94,1.72-.31,3.44-.58,5.25-.89V38.09c-.48-.25-.92-.52-1.38-.72a7,7,0,0,1-4.06-4.64c-2.09-6.69.82-11.92,5.93-14.19,4.52-2,9-1.37,12.93,2,3.62,3.08,4,12.56,0,15.88A24.45,24.45,0,0,1,99.52,38.7Zm54,67.78a49.59,49.59,0,0,0-.13-10.85,49.31,49.31,0,0,0-4.54-14c-5.59-12-14-21.24-26-27a71.41,71.41,0,0,0-20.15-6.07c-3.48-.54-7-1.23-10.5-.71-4.2.62-8.43,1.22-12.56,2.19a57,57,0,0,0-19.73,8.4C47.78,66.84,40.38,78.53,36.62,92.61A36.15,36.15,0,0,0,36,107.25c4.32,1.44,8.58,3,12.94,4.26,9.73,2.79,19.75,3.66,29.81,3.91,8.29.21,16.58.21,24.87.14a161.58,161.58,0,0,0,28-2.28A98.91,98.91,0,0,0,153.5,106.48Zm-59,27.33c5.71-.25,11.44-.32,17.13-.8,6.13-.51,12.27-1.16,18.33-2.17a25.49,25.49,0,0,0,14.52-7.71c3-3.1,3-5.6.38-9-1.15-1.48-1.56-1.65-3.39-1.11a113.69,113.69,0,0,1-25.34,4.11,378.24,378.24,0,0,1-44,0,92.49,92.49,0,0,1-10.28-1c-5-.86-10-2.06-15.07-3.05a3,3,0,0,0-2,.18,6.09,6.09,0,0,0-1.21,9.08,25.12,25.12,0,0,0,4.39,4,29.76,29.76,0,0,0,13.44,5.09A250.17,250.17,0,0,0,94.5,133.81Zm-38.39-1.29c0,1.75,0,3.28,0,4.8-.19,9.13,1.22,18.14,2.4,27.15.69,5.26,3.77,8.69,9.1,9.69a40.68,40.68,0,0,0,7.2.73c12.18.07,24.36.05,36.54,0a46.8,46.8,0,0,0,5.7-.41c6.62-.84,10.32-4.56,11-11.18.69-7.15,2.09-14.23,2.11-21.44,0-2.9,0-5.8,0-8.88A228.59,228.59,0,0,1,56.12,132.52ZM23.48,98.71c1.24-.11,2.25-.17,3.25-.28,2.08-.22,3.28-1.21,3.41-3.32a24.28,24.28,0,0,0-.3-5.89c-.54-2.93-2.09-4.18-5.07-4.14-3.22,0-6.44.26-9.65.59a23.87,23.87,0,0,0-4.46,1.14A3.19,3.19,0,0,0,8.32,90a29.82,29.82,0,0,0,.15,5c.36,2.68,2.44,4,5.38,3.43a27.93,27.93,0,0,1,0-3.22c.11-1-.65-2.15.79-3.18,1.12,2.26.26,4.61.88,7,1.36.08,2.74.27,4.11.22,1.7-.06,2.13-.57,2.22-2.34.06-1.1,0-2.2.05-3.3a5.94,5.94,0,0,1,.39-1.26c1.49.81.79,2,.93,3S23.41,97.45,23.48,98.71Zm154.47,5.65c2.95.92,5.09-.13,5.85-2.87a31,31,0,0,0,.7-3.44c.49-3,0-4.09-2.85-5.37a45.84,45.84,0,0,0-12.91-3.39,4.46,4.46,0,0,0-5,2.79,16.77,16.77,0,0,0-1.42,6.82,2.91,2.91,0,0,0,1.41,2.82,8.21,8.21,0,0,0,4.68,1c.22-1.08.37-2.08.64-3.06s-.11-2.22,1.27-2.74c.79,1,.17,2,.05,2.83-.54,3.92,0,4.6,4,4.7.63,0,1.27-.06,1.85-.1,1.25-5.67,1.25-5.67,2.31-6.21C179,100.33,177.73,102.3,177.95,104.36ZM94.58,36.45c2.14-.24,3.76-.33,5.33-.64a6.54,6.54,0,0,0,2.32-1.11c3.21-2.21,2.64-10.92-.29-13a10.68,10.68,0,0,0-8.66-1.94c-5.74,1.11-9.19,7.94-5.87,13.84a4.39,4.39,0,0,0,2.94,2.14C91.9,36.14,93.5,36.29,94.58,36.45ZM67.24,216.24a6.52,6.52,0,0,0-.08-1.05,10.37,10.37,0,0,0-9.45-7.63,59.86,59.86,0,0,0-7.9.15,11.65,11.65,0,0,0-5.68,2.2,9.23,9.23,0,0,0-3.48,6.91Zm75.28.58c-.91-6.09-4.59-8.51-9.74-9.15a48.39,48.39,0,0,0-6.81-.18,11.31,11.31,0,0,0-7,2.72,9.09,9.09,0,0,0-3.22,6ZM29.32,136.55l-2.52-7.44c-1.09.58-2.11,1.14-3.15,1.65a14.27,14.27,0,0,0-6.87,7.7,3.15,3.15,0,0,0-.32,1.88c1,3.41,2.28,6.68,5,9.11a7.66,7.66,0,0,0,3.75,2.11C25.52,143.32,27,140.3,29.32,136.55Zm128.83,18.5a13.06,13.06,0,0,0,8.9-6.68c2.22-3.72,2.29-4.46.5-8.34-1.56-3.39-4.31-5.55-7.37-7.34l-3.61,6.87C158.95,144.36,159.09,149.55,158.15,155.05Zm-128-17.14A21.79,21.79,0,0,0,26.82,151a1.74,1.74,0,0,0,1.65,1.74,19.44,19.44,0,0,0,8.5-.05,46.81,46.81,0,0,0,4.75-1.89c-3.94-3.84-4.92-4.86-7.11-12Zm112.22,13.47a1.61,1.61,0,0,0,.2.37,7,7,0,0,0,.66.58c3.22,2.52,7,3.32,10.94,3.28,2.12,0,2.53-.33,2.84-2.46a23.84,23.84,0,0,0-.68-10.45,14.94,14.94,0,0,0-.85-1.92H151C148.43,146.43,147.09,148.07,142.37,151.39ZM25.88,119.63c-5.24-.71-8.1,1.08-11.27,3.33a2.18,2.18,0,0,0-.61,1.69c.21,3.07.51,6.12.84,9.18.11,1,.4,2,.6,3.07l.49.16c2-5,6.3-7.35,10.88-9.48Zm-.11-12.2c-4.43-.27-8.45.26-12.2,2.64,0,2-.06,3.91,0,5.8s-.32,3.73.36,5.85a17.53,17.53,0,0,1,11.82-3.8Zm136.87,15.86-2.11,7.56c2,1.69,4.17,3.07,5.77,4.92s2.61,4.13,3.9,6.24a13.34,13.34,0,0,0,.64-1.55c.74-2.6,1.47-5.2,2.14-7.82,1-4,1-4-2.38-6.62A13,13,0,0,0,162.64,123.29Zm2-11.93L163,121.77c4.52.32,8,2.37,11.46,5.72.61-4.09,1.17-7.61,1.61-11.14a2,2,0,0,0-.82-1.37A18.92,18.92,0,0,0,164.63,111.36Zm-29.46,30.18c.76,1.44,1.28,2.56,1.93,3.62a37.7,37.7,0,0,0,2.35,3.44c1.32,1.71,1.86,1.85,3.65.6a16.78,16.78,0,0,0,6.52-9.21l-4.33-4.66C142.21,137.78,139.27,140.31,135.17,141.54Zm-99-3.4a17.52,17.52,0,0,0,4.41,9.59A5.21,5.21,0,0,0,42.3,149a1.84,1.84,0,0,0,1.56,0,26.15,26.15,0,0,0,6.21-7.13c-3.85-1.78-6.29-4.86-9-7.64ZM51,140.62c1-1.95,2-3.8,2.76-5.73a5,5,0,0,0,.17-2.37,1.72,1.72,0,0,0-.79-1.13c-2.56-1.38-5.15-2.7-7.78-4.06l-3.25,5.85C44.74,135.91,47,139.1,51,140.62Zm81.55-7.94a17.7,17.7,0,0,0,2.26,7.38c3.9-.89,6.69-3.53,9.61-6l-2.23-6Zm-9.78,57.06c1.4,1.26,2.66,2.48,4,3.57a2.36,2.36,0,0,0,1.61.29,18.86,18.86,0,0,0,8-3.45,10.14,10.14,0,0,0,1.47-1.6L130.44,183A21.33,21.33,0,0,1,122.8,189.74Zm-77.64-1.22c2,2.5,7,5,9.79,5.17a1.62,1.62,0,0,0,1-.2c1.41-1.2,2.76-2.46,4.23-3.78A21.67,21.67,0,0,1,52.53,183Zm68.95-5.42c2.39,1.84,4.38,3.43,6.43,4.92a2,2,0,0,0,1.6.24c3.09-1.07,5.14-3.33,7.06-6.07l-5.31-3.56C121.19,181.26,117.87,182.14,114.1,183.1Zm-60.25-.92A15.3,15.3,0,0,0,60.23,188a2.47,2.47,0,0,0,2,.08c2.19-1.51,4.27-3.2,6.55-4.94-2-.65-3.72-1.06-5.3-1.76a52.34,52.34,0,0,1-4.65-2.64ZM43.79,190c.6,3.92,2.2,7.09,3.19,10.2l9.67-1.05c-.15-.73-.32-1.36-.39-2-.18-1.45-1-2-2.41-2.34a20.92,20.92,0,0,1-4.74-1.66C47.42,192.38,45.87,191.29,43.79,190Zm92.1,10.18c2.07-4.15,3.24-8.26,2.79-10.09-.32.24-.61.44-.87.66a16.61,16.61,0,0,1-7.79,3.86c-2.34.37-3.32,1.45-3.51,3.61,0,.35-.05.7-.07.94ZM26.32,100.84a18.62,18.62,0,0,0-5.88.2,43.49,43.49,0,0,1-5.94.06c-.67,2.24-.58,4.51-.78,7.24,4-2.22,8.06-2.36,12.1-2.49Zm150.19,13.24c.18-2.77.33-5,.48-7.36-.85-.07-1.42-.07-2-.17-1.58-.27-3.16-.54-4.73-.88s-3.2-.79-5.08-1.25l-.32,5.39C169,110.42,172.81,111.38,176.51,114.08ZM76.82,177.29a10.81,10.81,0,0,0-1.26-.29c-3.58-.23-7.18-.21-10.62-1.45a1.67,1.67,0,0,0-1.23.16c-1.06.61-2.07,1.32-3.17,2a4.46,4.46,0,0,0,.65.8,16.47,16.47,0,0,0,8.58,3A2.2,2.2,0,0,0,71,181.4C72.89,180.14,74.69,178.82,76.82,177.29Zm45.74.65c-1.23-1-2.12-1.86-3.65-1.72-3.71.34-7.44.54-11.16.82a9.64,9.64,0,0,0-1.38.35,25.51,25.51,0,0,1,3.24,2.4c2.12,2.18,4.55,2,7.1,1.18a33.55,33.55,0,0,0,3.85-1.59A14.7,14.7,0,0,0,122.56,177.94Zm1.58,27.31,10,.65c.24-.62.5-1.22.7-1.84s.36-1.35.53-2c-2.43-1-6.76-1.57-8.77-1.11a1.83,1.83,0,0,0-1.14.82C125,202.88,124.59,204.06,124.14,205.25Zm-75.29.82c1.81-.23,3.39-.5,5-.6s3.27,0,5.12,0c-.55-1.44-.9-2.55-1.4-3.6a1.67,1.67,0,0,0-1.09-.87,18.36,18.36,0,0,0-9,1.09ZM92.5,38.43v7.26h4.69V38.43Z" transform="translate(-6.21 -17.4)"/><path class="cls-3" d="M153.5,106.48a98.91,98.91,0,0,1-21.8,6.8,161.58,161.58,0,0,1-28,2.28c-8.29.07-16.58.07-24.87-.14-10.06-.25-20.08-1.12-29.81-3.91-4.36-1.25-8.62-2.83-12.94-4.26a36.15,36.15,0,0,1,.58-14.64c3.76-14.08,11.16-25.76,23.27-34.17A57,57,0,0,1,79.62,50c4.13-1,8.35-1.57,12.56-2.19,3.53-.52,7,.17,10.5.71a71.41,71.41,0,0,1,20.15,6.07c12,5.8,20.42,15.07,26,27a49.31,49.31,0,0,1,4.54,14A49.59,49.59,0,0,1,153.5,106.48Zm-46.16-16c-.06,9.33,6.87,16.18,16.49,16.29A16,16,0,0,0,139.78,91c.07-9.58-6.87-16.92-16.08-17A16.2,16.2,0,0,0,107.33,90.48ZM84,90.53C84,81.18,76.85,74,67.73,74S51.55,81.41,51.6,91c0,9,7.29,15.85,16.79,15.8A15.89,15.89,0,0,0,84,90.53Zm11.71,7.71v0c-2.93,0-5.86,0-8.79,0-2.29,0-2.56.21-2.44,2.56a28.4,28.4,0,0,0,.75,5A7.73,7.73,0,0,0,90,111.26a14.52,14.52,0,0,0,12.54-.4,7,7,0,0,0,3.33-3.68,15.79,15.79,0,0,0,1.23-6.87c-.07-1.77-.34-2-2.09-2.05C101.91,98.23,98.83,98.25,95.75,98.25Z" transform="translate(-6.21 -17.4)"/><path class="cls-4" d="M94.5,133.81a250.17,250.17,0,0,1-33.12-2.44,29.76,29.76,0,0,1-13.44-5.09,25.12,25.12,0,0,1-4.39-4,6.09,6.09,0,0,1,1.21-9.08,3,3,0,0,1,2-.18c5,1,10,2.19,15.07,3.05a92.49,92.49,0,0,0,10.28,1,378.24,378.24,0,0,0,44,0A113.69,113.69,0,0,0,141.48,113c1.83-.53,2.23-.37,3.39,1.11,2.63,3.38,2.57,5.88-.38,9A25.49,25.49,0,0,1,130,130.85c-6.07,1-12.2,1.66-18.33,2.17C105.94,133.48,100.21,133.56,94.5,133.81Z" transform="translate(-6.21 -17.4)"/><path class="cls-3" d="M56.12,132.52a228.59,228.59,0,0,0,74,.47c0,3.08,0,6,0,8.88,0,7.21-1.42,14.29-2.11,21.44-.64,6.63-4.34,10.35-11,11.18a46.8,46.8,0,0,1-5.7.41c-12.18,0-24.36.06-36.54,0a40.68,40.68,0,0,1-7.2-.73c-5.34-1-8.42-4.43-9.1-9.69-1.18-9-2.59-18-2.4-27.15C56.14,135.8,56.12,134.27,56.12,132.52ZM68,166.44c16.87.79,33.41.86,50,.45a11.33,11.33,0,0,0,.25-1.28q.27-4.17.5-8.34c.24-4.32.47-8.64.67-13a14.33,14.33,0,0,0-.17-2.07l-52.67-.48Z" transform="translate(-6.21 -17.4)"/><path class="cls-3" d="M23.48,98.71c-.07-1.26-.07-2.34-.22-3.4s.56-2.19-.93-3a5.94,5.94,0,0,0-.39,1.26c-.05,1.1,0,2.2-.05,3.3-.1,1.77-.52,2.27-2.22,2.34-1.37,0-2.75-.14-4.11-.22-.62-2.34.23-4.69-.88-7-1.43,1-.67,2.21-.79,3.18a27.93,27.93,0,0,0,0,3.22c-2.94.55-5-.75-5.38-3.43a29.82,29.82,0,0,1-.15-5,3.19,3.19,0,0,1,2.34-3.13,23.87,23.87,0,0,1,4.46-1.14c3.2-.33,6.43-.55,9.65-.59,3,0,4.53,1.21,5.07,4.14a24.28,24.28,0,0,1,.3,5.89c-.14,2.11-1.34,3.1-3.41,3.32C25.73,98.53,24.72,98.6,23.48,98.71Z" transform="translate(-6.21 -17.4)"/><path class="cls-3" d="M177.95,104.36c-.21-2.06,1.07-4,.62-6.19-1.06.54-1.06.54-2.31,6.21-.58,0-1.21.11-1.85.1-4-.1-4.59-.77-4-4.7.12-.88.73-1.8-.05-2.83-1.38.52-1,1.81-1.27,2.74s-.42,2-.64,3.06a8.21,8.21,0,0,1-4.68-1,2.91,2.91,0,0,1-1.41-2.82,16.77,16.77,0,0,1,1.42-6.82,4.46,4.46,0,0,1,5-2.79,45.84,45.84,0,0,1,12.91,3.39C184.45,94,185,95,184.49,98a31,31,0,0,1-.7,3.44C183,104.23,180.89,105.28,177.95,104.36Z" transform="translate(-6.21 -17.4)"/><path class="cls-3" d="M94.58,36.45c-1.07-.16-2.67-.32-4.23-.66a4.39,4.39,0,0,1-2.94-2.14c-3.33-5.9.12-12.73,5.87-13.84a10.68,10.68,0,0,1,8.66,1.94c2.93,2.05,3.5,10.75.29,13a6.54,6.54,0,0,1-2.32,1.11C98.33,36.13,96.72,36.21,94.58,36.45Z" transform="translate(-6.21 -17.4)"/><path class="cls-3" d="M67.24,216.24l-26.6.58a9.23,9.23,0,0,1,3.48-6.91,11.65,11.65,0,0,1,5.68-2.2,59.86,59.86,0,0,1,7.9-.15,10.37,10.37,0,0,1,9.45,7.63A6.52,6.52,0,0,1,67.24,216.24Z" transform="translate(-6.21 -17.4)"/><path class="cls-3" d="M142.52,216.83l-26.81-.59a9.09,9.09,0,0,1,3.22-6,11.31,11.31,0,0,1,7-2.72,48.39,48.39,0,0,1,6.81.18C137.93,208.31,141.61,210.74,142.52,216.83Z" transform="translate(-6.21 -17.4)"/><path class="cls-4" d="M29.32,136.55c-2.36,3.74-3.8,6.76-4.07,15a7.66,7.66,0,0,1-3.75-2.11c-2.76-2.43-4-5.71-5-9.11a3.15,3.15,0,0,1,.32-1.88,14.27,14.27,0,0,1,6.87-7.7c1-.51,2.05-1.08,3.15-1.65Z" transform="translate(-6.21 -17.4)"/><path class="cls-4" d="M158.15,155.05c.94-5.5.8-10.7-1.58-15.49l3.61-6.87c3.06,1.79,5.81,3.95,7.37,7.34,1.79,3.88,1.72,4.63-.5,8.34A13.06,13.06,0,0,1,158.15,155.05Z" transform="translate(-6.21 -17.4)"/><path class="cls-4" d="M30.15,137.92l4.45.85c2.2,7.17,3.18,8.2,7.11,12A46.81,46.81,0,0,1,37,152.69a19.44,19.44,0,0,1-8.5.05A1.74,1.74,0,0,1,26.82,151,21.79,21.79,0,0,1,30.15,137.92Z" transform="translate(-6.21 -17.4)"/><path class="cls-4" d="M142.37,151.39c4.72-3.32,6.05-5,8.6-10.61h4.52a14.94,14.94,0,0,1,.85,1.92,23.84,23.84,0,0,1,.68,10.45c-.31,2.13-.72,2.44-2.84,2.46-4,0-7.73-.76-10.94-3.28a7,7,0,0,1-.66-.58A1.57,1.57,0,0,1,142.37,151.39Z" transform="translate(-6.21 -17.4)"/><path class="cls-4" d="M25.88,119.63l.94,7.95c-4.58,2.13-8.88,4.45-10.88,9.48l-.49-.16c-.21-1-.49-2-.6-3.07-.33-3.05-.63-6.11-.84-9.18a2.18,2.18,0,0,1,.61-1.69C17.78,120.71,20.64,118.91,25.88,119.63Z" transform="translate(-6.21 -17.4)"/><path class="cls-4" d="M25.77,107.43v10.49A17.53,17.53,0,0,0,14,121.72c-.68-2.12-.29-4-.36-5.85s0-3.8,0-5.8C17.32,107.69,21.34,107.16,25.77,107.43Z" transform="translate(-6.21 -17.4)"/><path class="cls-4" d="M162.64,123.29a13,13,0,0,1,8,2.74c3.36,2.61,3.41,2.58,2.38,6.62-.67,2.62-1.4,5.22-2.14,7.82a13.34,13.34,0,0,1-.64,1.55c-1.29-2.12-2.32-4.42-3.9-6.24s-3.74-3.23-5.77-4.92Z" transform="translate(-6.21 -17.4)"/><path class="cls-4" d="M164.63,111.36A18.92,18.92,0,0,1,175.24,115a2,2,0,0,1,.82,1.37c-.45,3.53-1,7-1.61,11.14-3.41-3.34-6.94-5.4-11.46-5.72Z" transform="translate(-6.21 -17.4)"/><path class="cls-4" d="M135.17,141.54c4.1-1.22,7-3.76,10.11-6.21l4.33,4.66a16.78,16.78,0,0,1-6.52,9.21c-1.78,1.25-2.33,1.11-3.65-.6a37.7,37.7,0,0,1-2.35-3.44C136.45,144.1,135.93,143,135.17,141.54Z" transform="translate(-6.21 -17.4)"/><path class="cls-4" d="M36.15,138.13l4.95-3.9c2.69,2.78,5.12,5.86,9,7.64A26.15,26.15,0,0,1,43.86,149a1.84,1.84,0,0,1-1.56,0,5.21,5.21,0,0,1-1.73-1.32A17.52,17.52,0,0,1,36.15,138.13Z" transform="translate(-6.21 -17.4)"/><path class="cls-4" d="M51,140.62c-4.06-1.52-6.29-4.71-8.88-7.44l3.25-5.85c2.63,1.36,5.23,2.68,7.78,4.06a1.72,1.72,0,0,1,.79,1.13,5,5,0,0,1-.17,2.37C53,136.82,52,138.68,51,140.62Z" transform="translate(-6.21 -17.4)"/><path class="cls-4" d="M132.58,132.68l9.64-4.56,2.23,6c-2.92,2.46-5.7,5.1-9.61,6A17.7,17.7,0,0,1,132.58,132.68Z" transform="translate(-6.21 -17.4)"/><path class="cls-4" d="M122.8,189.74a21.33,21.33,0,0,0,7.63-6.73l7.46,5.54a10.14,10.14,0,0,1-1.47,1.6,18.86,18.86,0,0,1-8,3.45,2.36,2.36,0,0,1-1.61-.29C125.46,192.22,124.21,191,122.8,189.74Z" transform="translate(-6.21 -17.4)"/><path class="cls-4" d="M45.16,188.52l7.37-5.5a21.67,21.67,0,0,0,7.68,6.69c-1.47,1.32-2.83,2.58-4.23,3.78a1.62,1.62,0,0,1-1,.2C52.15,193.57,47.18,191,45.16,188.52Z" transform="translate(-6.21 -17.4)"/><path class="cls-4" d="M114.1,183.1c3.77-1,7.09-1.84,9.79-4.48l5.31,3.56c-1.92,2.74-4,5-7.06,6.07a2,2,0,0,1-1.6-.24C118.48,186.53,116.49,184.94,114.1,183.1Z" transform="translate(-6.21 -17.4)"/><path class="cls-4" d="M53.85,182.18l5-3.39a52.34,52.34,0,0,0,4.65,2.64c1.58.7,3.29,1.1,5.3,1.76-2.28,1.75-4.35,3.43-6.55,4.94a2.47,2.47,0,0,1-2-.08A15.3,15.3,0,0,1,53.85,182.18Z" transform="translate(-6.21 -17.4)"/><path class="cls-4" d="M43.79,190c2.08,1.25,3.63,2.34,5.32,3.15a20.92,20.92,0,0,0,4.74,1.66c1.42.3,2.24.88,2.41,2.34.08.65.25,1.28.39,2L47,200.25C46,197.14,44.4,194,43.79,190Z" transform="translate(-6.21 -17.4)"/><path class="cls-4" d="M135.89,200.23l-9.45-1c0-.24,0-.59.07-.94.18-2.16,1.17-3.25,3.51-3.61a16.61,16.61,0,0,0,7.79-3.86c.27-.22.55-.42.87-.66C139.13,192,138,196.08,135.89,200.23Z" transform="translate(-6.21 -17.4)"/><path class="cls-4" d="M26.32,100.84l-.5,5c-4,.13-8,.27-12.1,2.49.2-2.72.11-5,.78-7.24a43.49,43.49,0,0,0,5.94-.06A18.62,18.62,0,0,1,26.32,100.84Z" transform="translate(-6.21 -17.4)"/><path class="cls-4" d="M176.51,114.08c-3.7-2.7-7.5-3.66-11.62-4.27l.32-5.39c1.88.47,3.47.9,5.08,1.25s3.15.61,4.73.88c.56.1,1.13.1,2,.17C176.84,109.08,176.69,111.31,176.51,114.08Z" transform="translate(-6.21 -17.4)"/><path class="cls-4" d="M76.82,177.29c-2.13,1.53-3.93,2.85-5.77,4.11a2.2,2.2,0,0,1-1.28.16,16.47,16.47,0,0,1-8.58-3,4.46,4.46,0,0,1-.65-.8c1.1-.72,2.11-1.43,3.17-2a1.67,1.67,0,0,1,1.23-.16c3.44,1.24,7,1.22,10.62,1.45A10.81,10.81,0,0,1,76.82,177.29Z" transform="translate(-6.21 -17.4)"/><path class="cls-4" d="M122.56,177.94a14.7,14.7,0,0,1-2,1.44,33.55,33.55,0,0,1-3.85,1.59c-2.55.87-5,1-7.1-1.18a25.51,25.51,0,0,0-3.24-2.4,9.64,9.64,0,0,1,1.38-.35c3.72-.28,7.44-.48,11.16-.82C120.44,176.08,121.34,177,122.56,177.94Z" transform="translate(-6.21 -17.4)"/><path class="cls-4" d="M124.14,205.25c.45-1.19.83-2.37,1.36-3.47a1.83,1.83,0,0,1,1.14-.82c2-.46,6.34.11,8.77,1.11-.17.65-.32,1.33-.53,2s-.46,1.22-.7,1.84Z" transform="translate(-6.21 -17.4)"/><path class="cls-4" d="M48.85,206.07l-1.36-4a18.36,18.36,0,0,1,9-1.09,1.67,1.67,0,0,1,1.09.87c.5,1,.86,2.16,1.4,3.6-1.85,0-3.49-.08-5.12,0S50.65,205.84,48.85,206.07Z" transform="translate(-6.21 -17.4)"/><path class="cls-4" d="M92.5,38.43h4.69v7.26H92.5Z" transform="translate(-6.21 -17.4)"/><path class="cls-5" d="M107.33,90.48A16.2,16.2,0,0,1,123.7,74c9.2.07,16.15,7.41,16.08,17a16,16,0,0,1-15.95,15.75C114.2,106.67,107.27,99.82,107.33,90.48Z" transform="translate(-6.21 -17.4)"/><path class="cls-5" d="M84,90.53a15.89,15.89,0,0,1-15.65,16.24c-9.5,0-16.74-6.77-16.79-15.8C51.55,81.41,58.5,74.1,67.73,74S84,81.18,84,90.53Z" transform="translate(-6.21 -17.4)"/><path class="cls-2" d="M95.75,98.25c3.08,0,6.16,0,9.23,0,1.75,0,2,.29,2.09,2.05a15.79,15.79,0,0,1-1.23,6.87,7,7,0,0,1-3.33,3.68,14.52,14.52,0,0,1-12.54.4,7.73,7.73,0,0,1-4.71-5.46,28.4,28.4,0,0,1-.75-5c-.11-2.35.15-2.54,2.44-2.56,2.93,0,5.86,0,8.79,0Zm-7.89,8.6a9.87,9.87,0,0,1,5.07-3.38c2-.48,4.15-.77,6,.08a32.66,32.66,0,0,1,4.75,3.16c1.28-2.54,1.58-4.33,1-6.39h-18C86.29,102.57,86.83,104.56,87.86,106.85Zm13.83,1.74c-1.43-2.69-3.07-3.7-5.86-3.52-2.58.17-5,.75-6.29,3.4A11.35,11.35,0,0,0,101.69,108.59Z" transform="translate(-6.21 -17.4)"/><path class="cls-2" d="M68,166.44l-1.44-24.68,52.67.48a14.33,14.33,0,0,1,.17,2.07c-.2,4.32-.43,8.64-.67,13q-.23,4.17-.5,8.34a11.33,11.33,0,0,1-.25,1.28C101.37,167.3,84.83,167.23,68,166.44Zm1.36-1.63c4.24,1,43.72,1.3,47.18.45.78-3,1.63-20,1.13-21.61l-49.49-.45C68.12,150.38,68.94,157.62,69.32,164.81Z" transform="translate(-6.21 -17.4)"/><path class="cls-6" d="M87.86,106.85c-1-2.29-1.57-4.28-1.11-6.54h18c.57,2.07.28,3.85-1,6.39A32.66,32.66,0,0,0,99,103.54c-1.9-.85-4-.56-6-.08A9.87,9.87,0,0,0,87.86,106.85Z" transform="translate(-6.21 -17.4)"/><path class="cls-7" d="M101.69,108.59a11.35,11.35,0,0,1-12.14-.12c1.29-2.65,3.7-3.23,6.29-3.4C98.62,104.89,100.26,105.9,101.69,108.59Z" transform="translate(-6.21 -17.4)"/><path class="cls-3" d="M69.32,164.81c-.38-7.19-1.2-14.44-1.17-21.61l49.49.45c.49,1.59-.35,18.56-1.13,21.61C113,166.12,73.56,165.79,69.32,164.81Zm28.76-10.49a4.79,4.79,0,0,0-5.11-5,5.44,5.44,0,0,0-5.26,5.38c0,2.7,2.4,4.76,5.5,4.73A4.82,4.82,0,0,0,98.08,154.32Z" transform="translate(-6.21 -17.4)"/><path class="cls-2" d="M98.08,154.32a4.82,4.82,0,0,1-4.86,5.07c-3.1,0-5.5-2-5.5-4.73A5.44,5.44,0,0,1,93,149.29,4.79,4.79,0,0,1,98.08,154.32Zm-1.4.13a3.35,3.35,0,0,0-3.41-3.73,4,4,0,0,0-4.13,3.69c-.11,2,1.58,3.53,3.9,3.57A3.44,3.44,0,0,0,96.68,154.45Z" transform="translate(-6.21 -17.4)"/><path class="cls-4" d="M96.68,154.45A3.44,3.44,0,0,1,93,158c-2.32,0-4-1.59-3.9-3.57a4,4,0,0,1,4.13-3.69A3.35,3.35,0,0,1,96.68,154.45Z" transform="translate(-6.21 -17.4)"/><circle class="cls-8" cx="61.03" cy="73" r="4.19"/><circle class="cls-8" cx="117.84" cy="73.45" r="4.19"/></svg>