<svg id="Capa_2" data-name="Capa 2" xmlns="http://www.w3.org/2000/svg" viewBox="0 0 176.08 203.85"><defs><style>.cls-1{fill:#d1d1d1;}.cls-2,.cls-3,.cls-4,.cls-5,.cls-6{fill-rule:evenodd;}.cls-3{fill:#aadbe8;}.cls-4{fill:#93b9b5;}.cls-5{fill:#fff;}.cls-6{fill:#595a5c;}</style></defs><title>coolito2</title><ellipse class="cls-1" cx="85.86" cy="196.52" rx="47.33" ry="7.33"/><path class="cls-2" d="M95.76,219c-2,.1-3.81.24-5.63.29-7.56.17-15.11.27-22.67.49-3,.08-3.49-.71-2.68-3.56,1.31-4.61,2.83-6.33,8.2-9.07-.13-9.48-.26-19.06-.39-28.64a14.37,14.37,0,0,0-1.43-.54c-6.5-1.57-9.74-5.54-10.68-12.64-.67-5.09-1.24-10.19-1.91-15.79a21,21,0,0,0-.75,2c-2.07,8.33-4.2,16.64-6.12,25-.4,1.77,0,3.72,0,5.73,1.48.18,2.7.36,3.92.47,2,.18,4.1.27,6.14.5a11.88,11.88,0,0,1,2.76.68,2.49,2.49,0,0,1,1.74,2.33c.2,4.27-2.71,6.88-5.9,6.72-2.34-.12-4.69-.16-7-.38a2.37,2.37,0,0,0-2.59,1,4,4,0,0,1-4.63,1.63c-1.62-.38-3.33-.36-5-.67a36.16,36.16,0,0,1-6.59-1.56c-1.06-.41-1.73-1.82-2.3-3.09-.63-.15-1.26-.34-1.9-.45a3.1,3.1,0,0,0-3.78,1.73c-2,3.83-5.48,5.62-9.7,5.89a9.29,9.29,0,0,1-8.59-4c-1.32-1.84-1.11-2.71.69-4a25.67,25.67,0,0,0,2.15-1.54c1.25-1.11,2.35-1.4,3.87-.28a3.75,3.75,0,0,0,4.65-.61,1.92,1.92,0,0,0,.44-2.22A4.23,4.23,0,0,0,14,182.72c-1.93,1.34-2.39,1.24-3.55-.81-1.91-3.38-1.84-4.17,1-6.82,2.61-2.48,5.75-2.79,9-1.75a12,12,0,0,1,6.71,4.73,2.3,2.3,0,0,0,1.28,1c2.16.34,4.35.54,6.69.8a29.14,29.14,0,0,0,1.47-4.69c1-7,3-13.74,4.65-20.59,2-8.49,4-17,5.95-25.49a3.52,3.52,0,0,0-.85-3.57c-2.83-3.14-2.92-6.29-.58-9.84.4-.61.82-1.2,1.37-2l-5.74-2.25a13.27,13.27,0,0,0-1.64-.62c-1.39-.34-1.72-1.27-1.81-2.6C36.77,91.6,43.33,77.92,54.25,66c8-8.69,18.15-13.51,29.43-16.23,3.48-.84,7-1.41,10.54-2.1.65-2.79.59-2.92-2.2-4.41a4,4,0,0,0-.72.36c-3,2.23-6,1.87-9.11.37a10.66,10.66,0,0,1-6.41-10,11.59,11.59,0,0,1,9.88-11.7,5.87,5.87,0,0,1,1.75,0,13.58,13.58,0,0,1,9.64,6.27,6.75,6.75,0,0,1,.75,5.51c-.12.49-.24,1-.39,1.62.69.45,1.34.9,2,1.31,1.66,1,1.7,1.24.46,2.82-.76,1-1.51,2-2.36,3.06,1.94.92,3.89.38,6,.85l.21,3.88c2.16.41,4.31.8,6.44,1.23a69.16,69.16,0,0,1,21.45,7.68,57,57,0,0,1,23.13,25.82c2.4,5.14,4.5,10.39,5,16.11.26,3.21.16,6.45.19,9.67a2.08,2.08,0,0,1-1.53,2.14c-2.14.77-4.24,1.64-6.35,2.47l-2.09.84c.7,1,1.3,1.86,1.83,2.73a7.17,7.17,0,0,1-.5,8.79,7.5,7.5,0,0,1-1.47,1.63c-1.45,1-1.49,2.29-1.12,3.85q3.84,15.82,7.58,31.66c1,4.21,1.72,8.48,2.73,12.68a56.56,56.56,0,0,0,3.63,11.31l18.16-3.2a27.21,27.21,0,0,1,.77,3.24c.47,4.23.87,8.46,1.28,12.7.26,2.7.5,5.4.73,8.11,0,.5,0,1,0,1.46-3.81,1.65-44.69,7.81-50.85,7.93a15,15,0,0,1-.72-1.95c-1.57-6.94-3.15-13.87-4.64-20.82-.48-2.24-.21-2.48,2.12-2.78,4.51-.58,9-1.12,13.64-1.69.1-.58.22-1.06.27-1.54.27-2.92.53-5.83.76-8.75a6.25,6.25,0,0,0-.08-2q-3.54-14.31-7.14-28.6c-.07-.27-.2-.53-.5-1.29-.13.87-.21,1.3-.26,1.73q-.53,4.48-1,9c-.3,2.62-.52,5.26-.91,7.87-1.08,7.29-4.26,10.72-11.41,12.46l-1.48.39c0,.86,0,1.73,0,2.59.13,8.22.3,16.43.38,24.65a2.31,2.31,0,0,0,1.44,2.39c3.91,1.92,5.6,5.41,6.45,9.45a2.06,2.06,0,0,1,0,.66,3.28,3.28,0,0,1-.18.56,3.15,3.15,0,0,1-.9.29q-13.86.33-27.72.63a7.75,7.75,0,0,1-.88,0c-1.37-.13-1.92-.66-1.67-2,.74-4,2.31-7.58,6.29-9.51l2.23-1.08c-.15-9.26-.3-18.62-.45-27.93-2.24-.7-13.87-.82-18.46-.21a17.57,17.57,0,0,0-.16,1.84c.11,8.29.27,16.58.34,24.87a2.51,2.51,0,0,0,1.61,2.53c3.64,1.84,5.34,5.09,6.16,8.91A9.49,9.49,0,0,1,95.76,219ZM40.17,108.74l1.92.82A103.24,103.24,0,0,0,78.31,117c8.94.32,17.9.39,26.84.39a187.64,187.64,0,0,0,26.77-1.65,99.79,99.79,0,0,0,24.5-6.88,1.86,1.86,0,0,0,1.41-1.93c0-2.35.1-4.7,0-7-.28-5.59-2.19-10.75-4.47-15.78-5.53-12.16-13.94-21.63-26.06-27.57a71,71,0,0,0-19-6c-4.56-.81-9.14-1.49-13.77-.75C90.71,50.43,86.94,51,83.25,52A57.54,57.54,0,0,0,64,60.31C52.68,68.17,45.54,79,41.46,92A39.65,39.65,0,0,0,40.17,108.74Zm61.3,26.8c3.88-.21,10.63-.41,17.34-1a161.94,161.94,0,0,0,16.13-2.1,25.42,25.42,0,0,0,13.7-7.47c3-3,3.07-5.59.48-9-1.21-1.59-1.56-1.71-3.54-1.15a115.18,115.18,0,0,1-25.14,4,321.63,321.63,0,0,1-33,.46c-7-.32-13.93-.63-20.84-1.44a155.12,155.12,0,0,1-15.5-3.11,2.5,2.5,0,0,0-2.87.88c-2.78,3.38-2.78,6.16.3,9.33a27.32,27.32,0,0,0,15.86,7.91A241.62,241.62,0,0,0,101.47,135.54Zm32.84-.76a227.42,227.42,0,0,1-73.8-.44c-.11.24-.23.37-.23.5,0,1.24.07,2.49,0,3.73-.22,9.28,1.19,18.42,2.37,27.57.73,5.67,4,8.95,9.64,9.93a41,41,0,0,0,6.56.57c5.86.07,11.73,0,17.59,0,7.33,0,14.66,0,22-.1a21.18,21.18,0,0,0,3.27-.36c6.7-1.11,9.72-4.59,10.44-11.15.77-7.06,2.11-14.07,2.11-21.21C134.31,140.85,134.31,137.87,134.31,134.77Zm9,56.29-13.79,1.73c1.34,7.41,3.18,14.45,4.75,21.47,5.51.08,43.05-5.75,46.66-7.2.23-3.36-1.64-20-2.49-21.77l-15.28,2.77c0,.55,0,.91-.06,1.27-.12,2.86-1,3.73-3.9,4.36-2.42.53-4.79,1.29-7.32,1a2.07,2.07,0,0,0-.64.15C146.31,196.06,145.55,195.7,143.35,191.07ZM87.49,43.2c.83.06,2.05-.7,3.18-1.7,2.2-2,3.29-4.63,4.58-7.16a5.18,5.18,0,0,0-.92-6.11,11.32,11.32,0,0,0-6.08-3.72,8.46,8.46,0,0,0-3.64.15c-3,.72-4.76,2.87-6.06,5.58C76,35.54,79.67,42.69,87.49,43.2ZM9.32,191.33a26.36,26.36,0,0,0,2.58,2.39c3.92,2.73,10,.78,12.07-2.23.66-1,1.34-1.92,1.95-2.93a2.53,2.53,0,0,1,2.76-1.31c1.29.17,2.6.19,3.87.27l2-5.54c-2.54-.35-4.79-.61-7-1a2.59,2.59,0,0,1-1.75-1c-1-2.26-2.9-3.4-5-4.36-3.52-1.6-7.66-.81-9.61,3.22l1.26,2.32.82-.41a6.2,6.2,0,0,1,8.57,2.68,4.7,4.7,0,0,1,.18,3.17,4.37,4.37,0,0,1-4.15,3.1,35.53,35.53,0,0,1-5.23-.7Zm84.16,25.84a7.07,7.07,0,0,0-.09-1,10.79,10.79,0,0,0-10.5-7.78c-2-.06-4.09.17-6.14.23a12,12,0,0,0-6.16,2.09c-2.46,1.56-3.23,4.11-4.17,7Zm6.95.46c8.92-.09,17.79-.12,26.64-.58a4.46,4.46,0,0,0,.07-.59A2.11,2.11,0,0,0,127,216c-1.11-4.12-4-6.38-8-7.33a24.48,24.48,0,0,0-10.89.24C103.63,209.93,101,213,100.43,217.63Zm45.68-37.19a30,30,0,0,0-.56,9.52,6.85,6.85,0,0,0,.79,2.47,1.93,1.93,0,0,0,2.41,1c3.34-1.08,6.95-.56,10.29-1.79,1.72-.63,2.23-.9,2-2.7a14,14,0,0,0-.63-2.54c-.76-2.36-1.56-4.71-2.35-7.06-.13-.4-.31-.79-.56-1.42A17.29,17.29,0,0,1,146.11,180.43Zm-108-2.64a7.27,7.27,0,0,0-.48.9c-.89,2.63-1.81,5.25-2.63,7.9a13.83,13.83,0,0,0-.5,3,1.48,1.48,0,0,0,1.18,1.64,36,36,0,0,0,5.54,1.17,24,24,0,0,1,5.18.71,2.39,2.39,0,0,0,3.34-1.89,25.06,25.06,0,0,0-.3-11.11A16.84,16.84,0,0,1,38.14,177.79Zm104.13-17,2.18,9c3.77-.79,7.44-1.15,10.83-3-.78-3.05-1.31-6-2.31-8.7Zm7.92-13.93-2.13-9-11,3.24,2.33,8.41C143.26,149.53,146.61,148.33,150.2,146.9ZM51.14,169.65l2.19-9.05-10.84-2.72-2.18,8.8C43.79,168.42,47.35,168.84,51.14,169.65Zm-5.68-23.07c3.78,1.76,7.83,2.94,10.84,2.63.61-2.25,1.26-4.56,1.86-6.89a7,7,0,0,0,0-1.51l-10.68-3.09Zm96.41,12.7a53.65,53.65,0,0,0,10.8-2.79l-2.07-7.91-10.78,2.81Zm-86.09-8.1L45,148.36l-2.07,8A52.83,52.83,0,0,0,53.74,159Zm-5,20-10.87-2.74c-.42,2-.84,4.1-1.28,6.16-.17.8.27,1.23.86,1.6a13.37,13.37,0,0,0,8.62,2,1.73,1.73,0,0,0,1.23-1C49.89,175.27,50.29,173.27,50.78,171.17Zm94,.22,1.61,6.76a12.87,12.87,0,0,0,9.32-1.52c.73-.39,1.41-.82,1.2-1.84-.42-2.05-.83-4.1-1.24-6.14ZM74.93,192.44H85.58V186H74.93Zm44.32-.18v-5.84H108.63v5.84Zm-67-1.93a49.94,49.94,0,0,0,9,.43A3.17,3.17,0,0,0,64,188.28c.71-2,.4-2.74-1.73-3-3.19-.37-6.4-.53-9.6-.76-.11,0-.22.15-.43.31Zm-3-61.45L47.86,136c3.29,1.76,6.78,2.28,10.28,3.23V133.7Zm69.89,50H108.54v5.79h10.63Zm17.49-39.18c3.81-1.18,7.59-1.63,11.09-3.51-.48-2.19-.72-4.31-1.36-6.27l-9.73,4.56Zm-28,60,10.72-.39v-5.39H108.63ZM74.75,184.47H85.53a30.15,30.15,0,0,0-.13-5.73H74.75ZM75,199.8H85.8a16.73,16.73,0,0,0-.3-5.81H80.16l-5.18.06Zm44.51.91-10.62.46v5.2h10.62Zm-33.62,1a40.7,40.7,0,0,0-10.67,0v4.68H85.87ZM96.09,37.36,93.53,41.6l1.64,1.09,3-4Zm.5,7.92c.07.93.12,1.53.17,2.16h4.79l-.2-1.88Z" transform="translate(-7.48 -22.23)"/><path class="cls-3" d="M40.17,108.74A39.65,39.65,0,0,1,41.46,92C45.54,79,52.68,68.17,64,60.31A57.54,57.54,0,0,1,83.25,52c3.69-.92,7.47-1.53,11.23-2.14,4.63-.75,9.21-.06,13.77.75a71,71,0,0,1,19,6c12.12,5.93,20.53,15.41,26.06,27.57,2.29,5,4.2,10.19,4.47,15.78.12,2.34,0,4.69,0,7a1.86,1.86,0,0,1-1.41,1.93,99.79,99.79,0,0,1-24.5,6.88,187.64,187.64,0,0,1-26.77,1.65c-8.95,0-17.9-.07-26.84-.39a103.24,103.24,0,0,1-36.22-7.43ZM86,87.14c0-9.34-7.18-16.69-16.21-16.66S53.6,77.87,53.6,87.37c0,9,7.33,16,16.69,16A16,16,0,0,0,86,87.14Zm23.29-.19c-.07,9.38,7.08,16.41,16.67,16.39a16.1,16.1,0,0,0,15.77-15.77c.09-9.54-6.85-17-16-17.08C119,70.41,108.81,75.91,109.34,86.95ZM90,106.12a14.43,14.43,0,0,0,0,2.59c.1.48.49,1.17.87,1.26.83.2,1.12-.51,1.14-1.23,0-1.17,0-2.35,0-3.52a5.85,5.85,0,0,1,2.58-5.07,3.61,3.61,0,0,1,5.74,1.62,13,13,0,0,1,.52,3c.13,1.31.09,2.65.3,3.94.07.42.71.74,1.08,1.11.29-.37.84-.76.82-1.11a37.9,37.9,0,0,0-.86-7.6c-1.13-3.91-5.69-5-8.91-2.55A8.3,8.3,0,0,0,90,106.12Z" transform="translate(-7.48 -22.23)"/><path class="cls-4" d="M101.47,135.54a241.62,241.62,0,0,1-37.06-2.6A27.32,27.32,0,0,1,48.55,125c-3.08-3.18-3.09-6-.3-9.33a2.5,2.5,0,0,1,2.87-.88,155.12,155.12,0,0,0,15.5,3.11c6.91.81,13.88,1.12,20.84,1.44a321.63,321.63,0,0,0,33-.46,115.18,115.18,0,0,0,25.14-4c2-.56,2.32-.44,3.54,1.15,2.58,3.39,2.49,5.93-.48,9a25.42,25.42,0,0,1-13.7,7.47,161.94,161.94,0,0,1-16.13,2.1C112.09,135.12,105.34,135.33,101.47,135.54Z" transform="translate(-7.48 -22.23)"/><path class="cls-3" d="M134.31,134.77c0,3.1,0,6.08,0,9.06C134.31,151,133,158,132.2,165c-.72,6.56-3.74,10-10.44,11.15a21.18,21.18,0,0,1-3.27.36c-7.33.06-14.66.08-22,.1-5.87,0-11.73.06-17.59,0a41,41,0,0,1-6.56-.57c-5.6-1-8.91-4.26-9.64-9.93-1.19-9.15-2.59-18.29-2.37-27.57,0-1.24,0-2.49,0-3.73,0-.13.11-.26.23-.5A227.42,227.42,0,0,0,134.31,134.77ZM70.85,168.25c16.87.66,33.4,1.07,49.9.36.82-3.61,1.7-22.7,1.11-24.86-17.34.4-34.73.33-52.47-.54C69.88,151.65,70.35,159.81,70.85,168.25Z" transform="translate(-7.48 -22.23)"/><path class="cls-3" d="M143.35,191.07c2.2,4.64,3,5,7.93,3.8a2.07,2.07,0,0,1,.64-.15c2.53.27,4.89-.49,7.32-1,2.85-.63,3.78-1.51,3.9-4.36,0-.36,0-.71.06-1.27l15.28-2.77c.85,1.77,2.73,18.41,2.49,21.77-3.61,1.45-41.15,7.28-46.66,7.2-1.57-7-3.41-14.06-4.75-21.47Zm17.72,9.17a5,5,0,0,0-5.38-5.31c-2.51,0-5,2.78-4.93,5.51s2.24,4.77,5.24,4.69S161.11,203,161.07,200.23Z" transform="translate(-7.48 -22.23)"/><path class="cls-3" d="M87.49,43.2c-7.82-.51-11.48-7.66-8.93-13,1.3-2.71,3-4.86,6.06-5.58a8.46,8.46,0,0,1,3.64-.15,11.32,11.32,0,0,1,6.08,3.72,5.18,5.18,0,0,1,.92,6.11c-1.29,2.53-2.39,5.2-4.58,7.16C89.55,42.5,88.33,43.27,87.49,43.2Z" transform="translate(-7.48 -22.23)"/><path class="cls-3" d="M9.32,191.33,12.65,189a35.53,35.53,0,0,0,5.23.7,4.37,4.37,0,0,0,4.15-3.1,4.7,4.7,0,0,0-.18-3.17,6.2,6.2,0,0,0-8.57-2.68l-.82.41-1.26-2.32c1.95-4,6.08-4.82,9.61-3.22,2.1,1,4,2.1,5,4.36a2.59,2.59,0,0,0,1.75,1c2.23.4,4.48.65,7,1l-2,5.54c-1.28-.08-2.59-.1-3.87-.27a2.53,2.53,0,0,0-2.76,1.31c-.6,1-1.29,2-1.95,2.93-2,3-8.16,5-12.07,2.23A26.36,26.36,0,0,1,9.32,191.33Z" transform="translate(-7.48 -22.23)"/><path class="cls-3" d="M93.48,217.17l-27,.53c.94-2.94,1.71-5.48,4.17-7a12,12,0,0,1,6.16-2.09c2-.06,4.09-.29,6.14-.23a10.79,10.79,0,0,1,10.5,7.78A7.07,7.07,0,0,1,93.48,217.17Z" transform="translate(-7.48 -22.23)"/><path class="cls-3" d="M100.43,217.63c.61-4.63,3.21-7.7,7.76-8.68a24.48,24.48,0,0,1,10.89-.24c4,.95,6.85,3.21,8,7.33a2.11,2.11,0,0,1,.09.43,4.46,4.46,0,0,1-.07.59C118.22,217.51,109.34,217.53,100.43,217.63Z" transform="translate(-7.48 -22.23)"/><path class="cls-3" d="M146.11,180.43a17.29,17.29,0,0,0,11.41-2.49c.25.63.42,1,.56,1.42.79,2.35,1.59,4.7,2.35,7.06a14,14,0,0,1,.63,2.54c.22,1.8-.29,2.07-2,2.7-3.35,1.22-7,.71-10.29,1.79a1.93,1.93,0,0,1-2.41-1,6.85,6.85,0,0,1-.79-2.47A30,30,0,0,1,146.11,180.43Z" transform="translate(-7.48 -22.23)"/><path class="cls-3" d="M38.14,177.79a16.84,16.84,0,0,0,11.33,2.32,25.06,25.06,0,0,1,.3,11.11,2.39,2.39,0,0,1-3.34,1.89,24,24,0,0,0-5.18-.71,36,36,0,0,1-5.54-1.17,1.48,1.48,0,0,1-1.18-1.64,13.83,13.83,0,0,1,.5-3c.82-2.65,1.74-5.27,2.63-7.9A7.27,7.27,0,0,1,38.14,177.79Z" transform="translate(-7.48 -22.23)"/><path class="cls-4" d="M142.27,160.83l10.7-2.71c1,2.74,1.53,5.65,2.31,8.7-3.38,1.87-7.06,2.23-10.83,3Z" transform="translate(-7.48 -22.23)"/><path class="cls-4" d="M150.2,146.9c-3.58,1.42-6.94,2.63-10.83,2.69L137,141.18l11-3.24Z" transform="translate(-7.48 -22.23)"/><path class="cls-4" d="M51.14,169.65c-3.79-.81-7.35-1.23-10.83-3l2.18-8.8,10.84,2.72Z" transform="translate(-7.48 -22.23)"/><path class="cls-4" d="M45.46,146.58l2-8.85,10.68,3.09a7,7,0,0,1,0,1.51c-.6,2.32-1.24,4.64-1.86,6.89C53.29,149.52,49.24,148.34,45.46,146.58Z" transform="translate(-7.48 -22.23)"/><path class="cls-4" d="M141.87,159.28l-2-7.89,10.78-2.81,2.07,7.91A53.65,53.65,0,0,1,141.87,159.28Z" transform="translate(-7.48 -22.23)"/><path class="cls-4" d="M55.77,151.18l-2,7.81a52.83,52.83,0,0,1-10.82-2.66l2.07-8Z" transform="translate(-7.48 -22.23)"/><path class="cls-4" d="M50.78,171.17c-.48,2.1-.89,4.1-1.44,6.06a1.73,1.73,0,0,1-1.23,1,13.37,13.37,0,0,1-8.62-2c-.6-.37-1-.79-.86-1.6.44-2.06.86-4.13,1.28-6.16Z" transform="translate(-7.48 -22.23)"/><path class="cls-4" d="M144.81,171.39l10.89-2.73c.41,2,.83,4.09,1.24,6.14.21,1-.47,1.45-1.2,1.84a12.87,12.87,0,0,1-9.32,1.52Z" transform="translate(-7.48 -22.23)"/><path class="cls-4" d="M74.93,192.44V186H85.58v6.43Z" transform="translate(-7.48 -22.23)"/><path class="cls-4" d="M119.25,192.26H108.63v-5.84h10.62Z" transform="translate(-7.48 -22.23)"/><path class="cls-3" d="M52.24,190.33v-5.49c.21-.16.33-.31.43-.31,3.2.23,6.41.39,9.6.76,2.13.25,2.44,1,1.73,3a3.17,3.17,0,0,1-2.78,2.48A49.94,49.94,0,0,1,52.24,190.33Z" transform="translate(-7.48 -22.23)"/><path class="cls-4" d="M49.28,128.88l8.85,4.82v5.52c-3.5-.94-7-1.47-10.28-3.23Z" transform="translate(-7.48 -22.23)"/><path class="cls-4" d="M119.17,178.9v5.79H108.54V178.9Z" transform="translate(-7.48 -22.23)"/><path class="cls-4" d="M136.66,139.72v-5.21l9.73-4.56c.64,2,.88,4.08,1.36,6.27C144.25,138.09,140.47,138.54,136.66,139.72Z" transform="translate(-7.48 -22.23)"/><path class="cls-4" d="M108.63,199.71v-5.78h10.72v5.39Z" transform="translate(-7.48 -22.23)"/><path class="cls-4" d="M74.75,184.47v-5.73H85.4a30.15,30.15,0,0,1,.13,5.73H74.75Z" transform="translate(-7.48 -22.23)"/><path class="cls-4" d="M75,199.8v-5.74l5.18-.06H85.5a16.73,16.73,0,0,1,.3,5.81Z" transform="translate(-7.48 -22.23)"/><path class="cls-4" d="M119.49,200.71v5.66H108.87v-5.2Z" transform="translate(-7.48 -22.23)"/><path class="cls-4" d="M85.87,201.69v4.68H75.2v-4.68A40.7,40.7,0,0,1,85.87,201.69Z" transform="translate(-7.48 -22.23)"/><path class="cls-4" d="M96.09,37.36l2,1.33-3,4L93.53,41.6Z" transform="translate(-7.48 -22.23)"/><path class="cls-4" d="M96.58,45.27l4.76.27.2,1.88H96.75C96.7,46.8,96.66,46.2,96.58,45.27Z" transform="translate(-7.48 -22.23)"/><path class="cls-2" d="M86,87.14a16,16,0,0,1-15.75,16.2c-9.36,0-16.69-7-16.69-16,0-9.5,7.08-16.87,16.23-16.9S86,77.79,86,87.14ZM84,87c.65-9.48-8.19-14.66-14.82-14.46-7.75.24-13.59,6.64-13.52,15.11A14.18,14.18,0,0,0,84,87Z" transform="translate(-7.48 -22.23)"/><path class="cls-2" d="M109.34,86.95c-.53-11,9.65-16.54,16.41-16.46,9.18.11,16.12,7.54,16,17.08A16.1,16.1,0,0,1,126,103.34C116.42,103.36,109.26,96.32,109.34,86.95Zm2.05-.24c-.54,6.3,4.08,14.18,13.83,14.52,7.74.27,14.37-5.83,14.51-13.2.17-9.08-5.41-15.17-14.07-15.39C117.8,72.44,111.56,78.59,111.39,86.71Z" transform="translate(-7.48 -22.23)"/><path class="cls-2" d="M90,106.12a8.3,8.3,0,0,1,3.34-7.54c3.23-2.47,7.78-1.36,8.91,2.55a37.9,37.9,0,0,1,.86,7.6c0,.35-.53.74-.82,1.11-.38-.37-1-.69-1.08-1.11-.21-1.29-.17-2.63-.3-3.94a13,13,0,0,0-.52-3,3.61,3.61,0,0,0-5.74-1.62,5.85,5.85,0,0,0-2.58,5.07c0,1.17,0,2.35,0,3.52,0,.72-.31,1.43-1.14,1.23-.38-.09-.77-.78-.87-1.26A14.43,14.43,0,0,1,90,106.12Z" transform="translate(-7.48 -22.23)"/><path class="cls-2" d="M70.85,168.25c-.49-8.44-1-16.59-1.46-25,17.73.87,35.13.94,52.47.54.59,2.16-.29,21.25-1.11,24.86C104.24,169.32,87.71,168.9,70.85,168.25Zm18.43-5.17c1,.16,1.12-.79,1.58-1.29,1.13-1.21,2.32-2,4.06-1.22.15.07.4-.05.85-.12-1.5-2,.83-2.37,1.5-3.54-.48-.15-.84-.24-1.17-.37-1.2-.48-2.54-.74-2.66-2.5,0-.74-.84-1-1.56-.61-1.34.71-2.15.14-2.93-1A14.59,14.59,0,0,0,87,150.52c-2.51,1.74-2.51,1.74-2.38,2.54a3.89,3.89,0,0,0,.63,0c2.14-.35,2.41-.29,3.13,1.66a17.88,17.88,0,0,1,1,8.42l-2.91,1.32a3.08,3.08,0,0,0,.72.4,5.09,5.09,0,0,0,1.07.06C89.43,164.85,89.52,164.69,89.27,163.08Zm31.4-17.72a2.92,2.92,0,0,0-3.42,1,10.16,10.16,0,0,1-4.4,2.81,23.47,23.47,0,0,1-14.48.32,7.91,7.91,0,0,1-4.65-3.12,2.48,2.48,0,0,0-2.4-1.14c-1.31.05-2.64,0-4,0a9.18,9.18,0,0,0-1.4.24c.35,3.32,3.12,4.63,4.68,6.75,2.75-.72,3.21-.47,4.45,1.86a2.71,2.71,0,0,0,1.48,1.09,14.6,14.6,0,0,0,8.44-.15,1.24,1.24,0,0,0,.8-.62c.44-1.46,1.69-1.18,2.72-1.36s2.13-.69,2.91.67a1.78,1.78,0,0,0,1.54.48c2.28-.49,4.55-1.06,6.78-1.74a1.76,1.76,0,0,0,.87-1.33C120.73,149.28,120.67,147.38,120.67,145.36Zm-1.06,21.7c-.15-2,1-4-.39-6l-1.88,1.28c-1.66-.52-1.9-1.61-1.37-3.11-2.24-1.1-4.28-2.41-6.94-2.07a2.61,2.61,0,0,1-2.4,1.86c-1.67.16-1.54-1.57-2.76-2.21l-6.69,2.06a4.14,4.14,0,0,0-.2.78c.13,2.49-.42,2.9-2.85,2.27a2,2,0,0,0-1.57.29,6.73,6.73,0,0,0-2.3,5.28c1.06,0,2-.07,2.93,0A4.82,4.82,0,0,0,97,166.27a10.51,10.51,0,0,1,3.3-1.67,22.66,22.66,0,0,1,7.81-.95,11,11,0,0,1,7.29,2.62A4,4,0,0,0,119.61,167.06Zm-47.41-.23,7.74.39c.07-.64.14-1,.14-1.35a44.45,44.45,0,0,0-4.86-19c-1.07-2.19-1.24-2.25-4.2-1.93C71,152.16,71.83,159.35,72.2,166.83Zm15.9.33.07-.52a9.71,9.71,0,0,0-1.32-.31c-.95-.1-1.72-.29-1.78-1.49-.07-1.35.16-1.73,1.54-2.18l1.64-.54c-.65-2.65,0-5.46-1.69-7.69-1.33-.26-2.93,1.12-3.5-1-.17-.62-.41-1.48-.13-1.91a10.22,10.22,0,0,1,2.15-1.86l-1.68-4.5-7.63-.36a48.69,48.69,0,0,1,5.76,22.49c2,0,3.79,0,5.53,0A6.5,6.5,0,0,0,88.1,167.16ZM95,145.37a3.76,3.76,0,0,0,2.32,2.25c5.67,2,11.31,2.17,16.82-.55a10.54,10.54,0,0,0,1.75-1.37l-.22-.33Zm19,21.78c-3.83-2.88-12.48-2.71-15.63.13C100.29,167.73,111.33,167.67,114,167.15ZM112.76,156c1.76,1.32,4.4,1.2,4.82,3.87l2.54-.26a30.79,30.79,0,0,0,.14-5.56Zm-6.81.73c.49,1,1.09,1,1.44.19a2,2,0,0,1,2-1.32,3.51,3.51,0,0,0,1-.38C108.92,154,108.83,154,106,156.7Z" transform="translate(-7.48 -22.23)"/><path class="cls-2" d="M161.07,200.23c0,2.78-2.08,4.81-5.08,4.89s-5.21-1.9-5.24-4.69,2.42-5.47,4.93-5.51A5,5,0,0,1,161.07,200.23Zm-1.43,0c0-2.39-1.43-3.91-3.56-3.84a4.09,4.09,0,0,0-4,3.94c0,1.94,1.6,3.4,3.81,3.4A3.5,3.5,0,0,0,159.64,200.24Z" transform="translate(-7.48 -22.23)"/><path class="cls-5" d="M84,87a14.18,14.18,0,0,1-28.34.65c-.07-8.47,5.77-14.87,13.52-15.11C75.8,72.39,84.64,77.57,84,87ZM69.6,92.76c3.43,0,7.24-4.27,6.87-7.78,0-.47-.48-1.19-.85-1.27-.86-.19-1.08.56-1.07,1.27a6,6,0,0,1-2.16,4.4,4.37,4.37,0,0,1-6.56-.29,5.49,5.49,0,0,1-1.5-4.21c0-.38-.61-.81-.94-1.22-.34.34-.81.62-1,1a3.57,3.57,0,0,0-.1,1.52A7.44,7.44,0,0,0,69.6,92.76Z" transform="translate(-7.48 -22.23)"/><path class="cls-5" d="M111.39,86.71c.17-8.12,6.41-14.27,14.26-14.07,8.66.22,14.24,6.31,14.07,15.39-.14,7.37-6.76,13.47-14.51,13.2C115.48,100.89,110.85,93,111.39,86.71Zm14.88,6.06a5,5,0,0,0,1.33-.28,8.6,8.6,0,0,0,5.15-6.13,5,5,0,0,0,.09-1.53c0-.6-.23-1.29-1-1.14-.36.07-.73.6-.91,1a6.46,6.46,0,0,0-.14,1.3c-.45,2.23-2.81,4.6-4.66,4.7a5.15,5.15,0,0,1-5.43-4.86,4.39,4.39,0,0,0-.05-1.3c-.14-.34-.54-.78-.86-.8a1.18,1.18,0,0,0-.94.67,5.85,5.85,0,0,0-.08,2.58C119.71,90,121.86,92.71,126.27,92.77Z" transform="translate(-7.48 -22.23)"/><path class="cls-4" d="M120.67,145.36c0,2,.06,3.91,0,5.8a1.76,1.76,0,0,1-.87,1.33c-2.23.68-4.5,1.25-6.78,1.74a1.78,1.78,0,0,1-1.54-.48c-.78-1.36-1.88-.85-2.91-.67s-2.28-.1-2.72,1.36a1.24,1.24,0,0,1-.8.62,14.6,14.6,0,0,1-8.44.15,2.71,2.71,0,0,1-1.48-1.09c-1.24-2.33-1.7-2.59-4.45-1.86-1.56-2.12-4.33-3.43-4.68-6.75a9.18,9.18,0,0,1,1.4-.24c1.32,0,2.64.06,4,0a2.48,2.48,0,0,1,2.4,1.14,7.91,7.91,0,0,0,4.65,3.12,23.47,23.47,0,0,0,14.48-.32,10.16,10.16,0,0,0,4.4-2.81A2.92,2.92,0,0,1,120.67,145.36Z" transform="translate(-7.48 -22.23)"/><path class="cls-4" d="M119.61,167.06a4,4,0,0,1-4.2-.79,11,11,0,0,0-7.29-2.62,22.66,22.66,0,0,0-7.81.95,10.51,10.51,0,0,0-3.3,1.67,4.82,4.82,0,0,1-3.82,1.19c-.93-.09-1.87,0-2.93,0a6.73,6.73,0,0,1,2.3-5.28,2,2,0,0,1,1.57-.29c2.43.63,3,.22,2.85-2.27a4.14,4.14,0,0,1,.2-.78l6.69-2.06c1.22.64,1.09,2.37,2.76,2.21a2.61,2.61,0,0,0,2.4-1.86c2.66-.33,4.7,1,6.94,2.07-.53,1.5-.29,2.59,1.37,3.11l1.88-1.28C120.65,163.07,119.46,165.1,119.61,167.06Z" transform="translate(-7.48 -22.23)"/><path class="cls-3" d="M72.2,166.83c-.37-7.48-1.19-14.68-1.19-21.9,3-.32,3.13-.26,4.2,1.93a44.45,44.45,0,0,1,4.86,19c0,.35-.07.71-.14,1.35Z" transform="translate(-7.48 -22.23)"/><path class="cls-4" d="M88.1,167.16a6.5,6.5,0,0,1-1,.17c-1.75,0-3.5,0-5.53,0a48.69,48.69,0,0,0-5.76-22.49l7.63.36,1.68,4.5a10.22,10.22,0,0,0-2.15,1.86c-.28.43,0,1.29.13,1.91.58,2.08,2.18.7,3.5,1,1.73,2.23,1,5,1.69,7.69l-1.64.54c-1.38.45-1.61.83-1.54,2.18.06,1.2.83,1.39,1.78,1.49a9.71,9.71,0,0,1,1.32.31Z" transform="translate(-7.48 -22.23)"/><path class="cls-3" d="M95,145.37H115.7l.22.33a10.54,10.54,0,0,1-1.75,1.37c-5.51,2.72-11.15,2.59-16.82.55A3.76,3.76,0,0,1,95,145.37Z" transform="translate(-7.48 -22.23)"/><path class="cls-6" d="M89.32,163.11a17.61,17.61,0,0,0-.95-8.4c-.72-1.95-1-2-3.13-1.66a3.89,3.89,0,0,1-.63,0c-.13-.79-.13-.79,2.38-2.54a14.59,14.59,0,0,1,1.95,1.94c.78,1.12,1.58,1.68,2.93,1,.72-.38,1.51-.13,1.56.61.12,1.76,1.46,2,2.66,2.5.34.14.69.22,1.17.37-.67,1.18-3,1.54-1.5,3.54-.45.07-.7.19-.85.12-1.73-.83-2.93,0-4.06,1.22-.46.49-.58,1.45-1.58,1.29Z" transform="translate(-7.48 -22.23)"/><path class="cls-3" d="M114,167.15c-2.7.53-13.73.59-15.63.13C101.55,164.43,110.19,164.26,114,167.15Z" transform="translate(-7.48 -22.23)"/><path class="cls-6" d="M112.76,156l7.5-2a30.79,30.79,0,0,1-.14,5.56l-2.54.26C117.17,157.17,114.52,157.29,112.76,156Z" transform="translate(-7.48 -22.23)"/><path class="cls-6" d="M106,156.7c2.88-2.71,3-2.74,4.43-1.5a3.51,3.51,0,0,1-1,.38,2,2,0,0,0-2,1.32C107,157.71,106.45,157.72,106,156.7Z" transform="translate(-7.48 -22.23)"/><path class="cls-6" d="M89.27,163.08c.25,1.61.16,1.77-1.05,1.83a5.09,5.09,0,0,1-1.07-.06,3.08,3.08,0,0,1-.72-.4l2.9-1.33Z" transform="translate(-7.48 -22.23)"/><path class="cls-4" d="M159.64,200.24a3.5,3.5,0,0,1-3.7,3.5c-2.21,0-3.85-1.46-3.81-3.4a4.09,4.09,0,0,1,4-3.94C158.22,196.33,159.63,197.85,159.64,200.24Z" transform="translate(-7.48 -22.23)"/><path class="cls-2" d="M69.6,92.76a7.44,7.44,0,0,1-7.3-6.56,3.57,3.57,0,0,1,.1-1.52c.17-.41.64-.69,1-1,.33.41,1,.84.94,1.22a5.49,5.49,0,0,0,1.5,4.21,4.37,4.37,0,0,0,6.56.29A6,6,0,0,0,74.54,85c0-.71.22-1.45,1.07-1.27.37.08.8.8.85,1.27C76.84,88.5,73,92.77,69.6,92.76Z" transform="translate(-7.48 -22.23)"/><path class="cls-2" d="M126.27,92.77c-4.41-.06-6.56-2.73-7.49-5.78a5.85,5.85,0,0,1,.08-2.58,1.18,1.18,0,0,1,.94-.67c.31,0,.72.46.86.8a4.39,4.39,0,0,1,.05,1.3,5.15,5.15,0,0,0,5.43,4.86c1.85-.11,4.21-2.48,4.66-4.7a6.46,6.46,0,0,1,.14-1.3c.18-.4.54-.93.91-1,.76-.15.95.54,1,1.14a5,5,0,0,1-.09,1.53,8.6,8.6,0,0,1-5.15,6.13A5,5,0,0,1,126.27,92.77Z" transform="translate(-7.48 -22.23)"/></svg>