<svg id="Capa_1" data-name="Capa 1" xmlns="http://www.w3.org/2000/svg" viewBox="0 0 147.73 206.8"><defs><style>.cls-1{fill:#d1d1d1;}.cls-2,.cls-3,.cls-4,.cls-5,.cls-6{fill-rule:evenodd;}.cls-3{fill:#aadbe8;}.cls-4{fill:#93b9b5;}.cls-5{fill:#595a5c;}.cls-6{fill:#fff;}</style></defs><title>coolito1</title><ellipse class="cls-1" cx="70.64" cy="199.47" rx="47.33" ry="7.33"/><path class="cls-2" d="M105.25,207.09c-.16-9.31-.31-18.62-.47-28.16a152.32,152.32,0,0,0-18.44-.08,18.84,18.84,0,0,0-.17,1.94c.11,8.29.27,16.58.34,24.87a2.5,2.5,0,0,0,1.59,2.54c3.64,1.83,5.34,5.08,6.18,8.89a4.29,4.29,0,0,1,.07,1.09,3.36,3.36,0,0,1-.26.77c-1.84.1-3.73.24-5.62.29-7.48.17-15,.26-22.45.48-3.08.09-3.48-.8-2.72-3.53,1.2-4.3,3.59-7.52,8.21-8.91-.13-9.65-.26-19.23-.39-28.9l-4.32-1.32c-1.3,1.94-2.56,3.81-3.82,5.67a3.37,3.37,0,0,1-4.2,1.46,13.26,13.26,0,0,1-3.71-2.27,80.51,80.51,0,0,0-10.85-8.2c-4.61-2.86-9.12-5.9-13.55-9a23.46,23.46,0,0,1-6.38-6.31,12.39,12.39,0,0,1-1.79-8.65,6.71,6.71,0,0,1,2.76-4.61,40.48,40.48,0,0,1,5.6-3.43c6.37-3.17,12.79-6.23,19.19-9.34.52-.25,1-.56,1.76-1-.56-.42-1-.73-1.4-1.07a61.33,61.33,0,0,1-5.62-4.88c-2.69-2.92-2.79-6.13-.66-9.48.47-.73,1-1.43,1.55-2.27-2.67-1-5.18-2.07-7.72-3a1.93,1.93,0,0,1-1.44-1.94c-.24-6-.42-11.91,1.64-17.63,1.16-3.24,2.46-6.43,3.85-9.58a9.5,9.5,0,0,0,.86-3.8c0-2.78.2-5.55.31-8.59,1.8,0,3.53-.1,5.26-.05A2.89,2.89,0,0,0,50.91,68C59.26,58.25,70,52.63,82.33,49.73c3.42-.81,6.89-1.37,10.64-2.11,0-1.17,0-2.46,0-3.74s0-2.63,0-3.83a2.89,2.89,0,0,0-.45-.41c-6.62-3.24-7.78-11.32-2.55-17,3.75-4,12-5.12,16.94.3,3.18,3.51,3.13,11.58-.26,14.91-1.15,1.13-2.8,1.74-4.44,2.72,0,.35-.07,1-.08,1.65,0,1.75,0,3.51,0,5.33,2.27.43,4.42.81,6.55,1.26,9.27,1.94,18.19,4.82,25.84,10.6a98.67,98.67,0,0,1,9.11,8.26,3.8,3.8,0,0,0,3.23,1.41c1.08-.1,2.18,0,3.5,0,0,1.25.16,2.33.08,3.4a14.73,14.73,0,0,0,1.91,8.2c3,5.59,5.3,11.47,5.86,17.86.27,3.13.14,6.3.18,9.45a2.21,2.21,0,0,1-1.63,2.31c-2.41.88-4.79,1.85-7.18,2.78-.33.13-.65.3-1.12.52l1.36,2c2.46,3.68,2.33,7-.74,10.18a57,57,0,0,1-5.72,4.76,18.91,18.91,0,0,1-1.87,1.15c.62.39,1.05.72,1.53,1,6.13,3,12.28,5.94,18.4,8.94a43.89,43.89,0,0,1,4.42,2.44c3.84,2.46,4.81,6.07,3.92,10.35a11.2,11.2,0,0,1-2.88,5.61,41.26,41.26,0,0,1-5.39,4.84c-3.81,2.73-7.71,5.36-11.71,7.82A82.68,82.68,0,0,0,137,182.26a10.55,10.55,0,0,1-3.39,2,3.37,3.37,0,0,1-4.06-1.36c-1.31-1.92-2.58-3.88-4-6l-5.65,1.6c0,.62-.11,1.27-.1,1.91.13,8.51.29,17,.38,25.53a2.16,2.16,0,0,0,1.43,2.17c3.83,1.88,5.52,5.29,6.43,9.23a2.64,2.64,0,0,1,0,.87,3.85,3.85,0,0,1-.28.75c-1.85.1-3.73.24-5.62.28-7.41.17-14.82.31-22.23.46-.37,0-.74,0-1.1,0-2-.07-2.47-.59-2-2.62.89-4.14,2.8-7.55,7-9.26C104.24,207.62,104.68,207.37,105.25,207.09ZM151,82.91c0,3.57,0,7.14,0,10.71,0,1-.17,2-.26,3.06a1.89,1.89,0,0,1-1.87,1.82,30.77,30.77,0,0,1-3.29.17c-5.94,0-11.88-.12-17.82-.08q-9.24.06-18.48.33a5.58,5.58,0,0,1-5.59-3A14,14,0,0,0,98.68,91a3.28,3.28,0,0,0-3.88,0A13.4,13.4,0,0,0,90,95.75a5.8,5.8,0,0,1-6,3.18c-3.44-.17-6.89-.17-10.34-.18-8.73,0-17.46,0-26.18-.07-4.52,0-4.85-.38-4.87-4.91,0-2.53,0-5.07,0-7.61a36.64,36.64,0,0,0-3.92,22.61l2,.82C52,114.3,63.9,116.42,76.07,117a387.33,387.33,0,0,0,46.41-.35,99.67,99.67,0,0,0,26.42-5.44c2.47-.89,4.9-1.91,7.25-2.83C157.35,99.14,155.27,90.82,151,82.91ZM99.85,135.55c4-.21,10.78-.42,17.57-1a152.62,152.62,0,0,0,16.13-2.11,25.08,25.08,0,0,0,13.67-7.51c2.9-3.07,3-5.46.51-8.81-1.28-1.72-1.6-1.84-3.7-1.24a114.39,114.39,0,0,1-24.92,4c-11.07.63-22.13.88-33.21.5-8.07-.28-16.14-.5-24.11-1.89-4.11-.72-8.17-1.74-12.23-2.69-.93-.22-1.7-.34-2.39.46-2.6,3-3.69,6-.34,9.51a27.55,27.55,0,0,0,16,8.13A239.67,239.67,0,0,0,99.85,135.55Zm33-.79a227.94,227.94,0,0,1-74.05-.44c0,1.64,0,3.09,0,4.54-.21,9.2,1.22,18.27,2.39,27.35.73,5.66,4.06,8.89,9.7,9.88a36.45,36.45,0,0,0,6.12.55q18.91.07,37.83,0a34.78,34.78,0,0,0,5.68-.5c6.15-1,9.48-4.46,10.14-10.72.78-7.43,2.12-14.81,2.19-22.3C132.92,140.41,132.9,137.71,132.9,134.75ZM102.63,67.32l13,.67c4.39.23,8.78.53,13.18.69s8.53.58,13,.19a9.17,9.17,0,0,0-.66-.94A51.72,51.72,0,0,0,127.5,57.37a68.75,68.75,0,0,0-20.6-6.75,54.13,54.13,0,0,0-10.25-1,70.61,70.61,0,0,0-19.38,3.66A53.07,53.07,0,0,0,54,67.64a16,16,0,0,0-1.07,1.55c6.66-.31,12.87-.58,19.08-.88s12.56-.66,19-1c.76,3.22,2.84,5.44,5.73,5.51C99.72,72.88,101.74,70.53,102.63,67.32ZM67.47,96.1l.33.49c.64.05,1.29.14,1.93.15,4.84,0,9.68,0,14.51.13a4.1,4.1,0,0,0,4.09-2.26,15.47,15.47,0,0,1,6-5.66,4.58,4.58,0,0,1,5,0c.54.34,1.11.63,1.73,1L115.5,71.29a6.73,6.73,0,0,0,.46-.74.31.31,0,0,0,0-.2,2.24,2.24,0,0,0-.15-.33l-11.59-.59c-3.65,5.95-7.31,6.67-13.39,2.69ZM51,96.46c4.73,0,9.19,0,13.65-.05a3.15,3.15,0,0,0,1.76-1.1c3.43-3.51,6.82-7.07,10.23-10.59Q82.8,78.32,89,72c.51-.52,1.27-1.07.67-1.83a2.31,2.31,0,0,0-1.68-.6c-2.34,0-4.68.28-7,.31a4.87,4.87,0,0,0-3.52,1.43q-12.6,12-25.27,23.83C51.8,95.48,51.44,95.93,51,96.46Zm68.51-.18.28.56c3.57-.14,7.14-.23,10.7-.45a2.7,2.7,0,0,0,1.55-1c1.19-1.39,2.31-2.84,3.4-4.31q6.12-8.31,12.2-16.66a2.75,2.75,0,0,0,.43-3.31c-2.34,0-4.81.08-7.29,0a3.16,3.16,0,0,0-2.94,1.42C133,78.67,128.16,84.83,123.36,91,122,92.73,120.76,94.52,119.47,96.28ZM102.3,90.75c1.34,1.8,2.46,3.33,3.62,4.84a2.85,2.85,0,0,0,4.88-.09c.9-1.25,1.77-2.52,2.7-3.74q7.22-9.43,14.46-18.84c.46-.59.87-1.22,1.49-2.1-3.66-.2-6.88-.35-10.1-.55a2.21,2.21,0,0,0-2,1c-.89,1.16-1.87,2.26-2.76,3.43Q108.41,82.71,102.3,90.75Zm4.79-60.41a8,8,0,0,0-1.49-5.8c-3.52-4.3-10.06-3.87-12.93-1.47-4,3.31-4.31,5.87-3.39,10.33a5.45,5.45,0,0,0,4.4,4.39c3.22.8,6.4.28,9.55-.34a5.1,5.1,0,0,0,2.3-1.55C107,34.36,107.19,32.38,107.1,30.34Zm-31,40.3-.12-.45c-2.46.11-4.91.24-7.37.33A5.27,5.27,0,0,0,65,71.94c-6.45,5.86-12.94,11.67-19.4,17.51-.41.38-1,.91-1,1.39-.05,1.86-.42,3.78.37,5.53a4.56,4.56,0,0,0,5.23-1.25c4.78-4.74,9.72-9.33,14.61-14C68.59,77.64,72.34,74.15,76.07,70.64Zm-10.81,147c8.92-.08,17.79-.11,26.74-.58a6.64,6.64,0,0,0-.11-1c-1.32-4.57-5.36-7.58-10.56-7.69a37.28,37.28,0,0,0-7.22.39C69.45,209.55,66.19,211.75,65.26,217.62Zm60.44-.46a9.29,9.29,0,0,0-.13-1.1c-1.23-4.54-5.32-7.59-10.53-7.73-2-.05-4.09.17-6.14.24a12.12,12.12,0,0,0-6.33,2.24,8.82,8.82,0,0,0-3.44,6.88Zm7.45-120.73c5.48-.11,10.49.87,15.64-.07.29-6.79.06-13.39-.32-20.46ZM27.33,159c3.79,4.25,8.57,6.32,12.59,9.62,2.92-2.71,4.77-5.87,6.65-9.15a43.2,43.2,0,0,1-4.66-3.29c-2.51-2.31-5.18-2.36-8.09-1.07A22.7,22.7,0,0,0,31,156.28C29.78,157,28.68,158,27.33,159Zm118.4.53c2.22,3.19,3.82,6.55,6.9,9.08,3.94-3.44,8.86-5.34,12.2-9.36a3.52,3.52,0,0,0-.37-.66c-2.66-2.81-6.15-3.83-9.8-4.43a2.24,2.24,0,0,0-1.45.33C150.76,156.05,148.36,157.71,145.73,159.49Zm-8.93-88-.18-.57c-1.29,0-2.59.06-3.88,0a2.38,2.38,0,0,0-2.24,1q-8.9,11.72-17.85,23.42a11.07,11.07,0,0,0-.77,1.45c1.55,0,2.85-.05,4.15,0a2.37,2.37,0,0,0,2.19-1.12c3.9-5.13,7.85-10.23,11.77-15.34Q133.41,75.9,136.8,71.45Zm-1.91,75.39c-.33,3-.65,5.73-.91,8.42s-1.08,5.27-.89,8.39c2.18-.75,4.27-1.09,6-2.11,3.57-2.16,6.92-4.67,10.35-7.05a10.52,10.52,0,0,0,1.17-1.16Zm-93.18,6.57c.81.65,1.29,1.07,1.81,1.43,2.76,1.92,5.62,3.71,8.28,5.77,2,1.55,4.29,2,6.92,2.68-.22-5.45-1.65-10.58-1.63-16.27Zm101.21,21.18a17,17,0,0,1-6.36-9.87,22,22,0,0,0-2.81.78,2,2,0,0,0-1.14,1.09c-.77,3.5-2.13,6.66-5,9a6.06,6.06,0,0,0,.44,1.35c1.06,1.65,2.1,3.32,3.3,4.87a2.23,2.23,0,0,0,1.76.44,3.69,3.69,0,0,0,1.75-.84C137.49,179.2,140.09,177,142.92,174.59Zm9.6-22.54c2.57.7,4.89,1.27,7.18,2a12.9,12.9,0,0,1,6.13,3.92c3.45-4.47,3.11-10.25-2.56-13.16-1.56-.8-3.16-1.53-4.76-2.26a10.82,10.82,0,0,0-1.49-.43c-.67,1.77-1.2,3.45-1.92,5S153.49,150.22,152.52,152.05Zm-117.4-10.2c-2.46,1.25-4.84,2.24-7,3.6-4.48,2.85-5.09,8.23-1.51,12.38,3.18-3.21,7.17-4.64,11.56-5.17A6.1,6.1,0,0,0,39.7,152ZM64.91,176c-4-2.61-5.09-6.48-6-10.42l-3.05-.85a16.75,16.75,0,0,1-6.24,9.86,4.54,4.54,0,0,0,.5.68c2.19,1.83,4.37,3.67,6.59,5.47a10.05,10.05,0,0,0,2,1.31c1.39.66,2.06.38,2.92-.93.56-.85,1.22-1.64,1.77-2.5S64.33,177,64.91,176Zm81-39.53c-2.16-1.11-4.15-2.18-6.18-3.16a2.2,2.2,0,0,0-1.44-.08c-1,.3-2,.73-3.2,1.16v10l6.72,2.67C143.1,143.48,145.06,140.35,145.87,136.44Zm1.54.81L143,147.78l8,3.6c2.43-3,3.59-6.47,4.73-10.14Zm-110.66,4c1.13,3.71,2.31,7.13,4.75,10.17l7.93-3.65L45,137.25Zm20-7.9c-1-.21-2.17-.82-2.92-.51-2.47,1-4.81,2.37-7.23,3.61.82,3.94,2.74,7.13,4.17,10.64l6-2.45Zm81.9,31.05a14,14,0,0,0,4.94,8.13c.65.52,1.27,1,2.16.42,1.76-1.16,3.54-2.29,5.24-3.38l-6.51-9.15Zm-90.69-4-6.48,9.16c1.74,1.11,3.54,2.34,5.43,3.43a1.79,1.79,0,0,0,1.57-.22,13.12,13.12,0,0,0,5.28-8.41ZM44.54,87.7,45,88l18.85-17c-2.06,0-3.65-.06-5.24,0a2.78,2.78,0,0,0-1.51.77Q51.4,76.9,45.77,82.14a3.13,3.13,0,0,0-.93,1.64C44.63,85.07,44.63,86.39,44.54,87.7ZM73.39,192.46H84V186H73.39Zm44.49-6.07H107.14a29.73,29.73,0,0,0,0,6c3.72-.05,7.19,0,10.73-.15Zm-10.79-7.54v6c3.69,0,7.15.12,10.59-.15v-5.9Zm.1,20.85,10.72-.36v-5.57c-3.69,0-7.21,0-10.72.18Zm-33.9-15.22H84.05a30.07,30.07,0,0,0-.12-5.72H73.28Zm11,9.52H78.71l-5.12.05v5.76H84.28Zm23.06,12.43H118v-5.68c-3.69.15-7.22.15-10.66.49Zm-33.62-5v4.93H84.32v-4.93ZM45.14,80.71l10.37-9.48H45.14ZM99.94,47.45V40.23H95.1a51,51,0,0,0,.15,7.22Z" transform="translate(-22.37 -19.28)"/><path class="cls-3" d="M151,82.91c4.31,7.91,6.39,16.23,5.18,25.45-2.35.92-4.77,1.94-7.25,2.83a99.67,99.67,0,0,1-26.42,5.44,387.33,387.33,0,0,1-46.41.35c-12.16-.55-24-2.67-35.35-7.38l-2-.82a36.64,36.64,0,0,1,3.92-22.61c0,2.54,0,5.07,0,7.61,0,4.53.35,4.89,4.87,4.91,8.73,0,17.46,0,26.18.07,3.45,0,6.9,0,10.34.18a5.8,5.8,0,0,0,6-3.18A13.4,13.4,0,0,1,94.8,91a3.28,3.28,0,0,1,3.88,0,14,14,0,0,1,4.94,4.91,5.58,5.58,0,0,0,5.59,3q9.24-.29,18.48-.33c5.94,0,11.88.06,17.82.08a30.77,30.77,0,0,0,3.29-.17,1.89,1.89,0,0,0,1.87-1.82c.1-1,.26-2,.26-3.06C151,90.05,151,86.48,151,82.91ZM96,108.79a33.4,33.4,0,0,1-5.51-7.4c-.4-.71-.71-1.94-1.85-1.25s-.32,1.62.14,2.29q2.86,4.15,5.85,8.2c.73,1,1.37,1.06,2.17.18,2.59-2.89,5.11-5.84,7.64-8.77.42-.49.63-1.13,0-1.51a1.47,1.47,0,0,0-1.35.15,17,17,0,0,0-1.95,2.07C99.4,104.74,97.71,106.74,96,108.79Z" transform="translate(-22.37 -19.28)"/><path class="cls-4" d="M99.85,135.55a239.67,239.67,0,0,1-37-2.64,27.55,27.55,0,0,1-16-8.13c-3.35-3.48-2.26-6.52.34-9.51.69-.79,1.47-.67,2.39-.46,4.06,1,8.12,2,12.23,2.69,8,1.39,16,1.62,24.11,1.89,11.08.38,22.15.13,33.21-.5a114.39,114.39,0,0,0,24.92-4c2.1-.6,2.42-.48,3.7,1.24,2.49,3.34,2.39,5.74-.51,8.81a25.08,25.08,0,0,1-13.67,7.51,152.62,152.62,0,0,1-16.13,2.11C110.63,135.12,103.81,135.33,99.85,135.55Z" transform="translate(-22.37 -19.28)"/><path class="cls-3" d="M132.9,134.75c0,3,0,5.65,0,8.35-.07,7.5-1.41,14.88-2.19,22.3-.66,6.25-4,9.67-10.14,10.72a34.78,34.78,0,0,1-5.68.5q-18.91.07-37.83,0a36.45,36.45,0,0,1-6.12-.55c-5.64-1-9-4.22-9.7-9.88-1.17-9.08-2.6-18.15-2.39-27.35,0-1.45,0-2.9,0-4.54A227.94,227.94,0,0,0,132.9,134.75Zm-12.12,33.86c.08-1.11.15-2,.2-2.84.38-6.44.76-12.88,1.11-19.32a25.51,25.51,0,0,0-.15-2.73c-17.64.45-35,.33-52.72-.51.5,8.5,1,16.66,1.47,25C87.44,168.92,104,169.3,120.78,168.61Z" transform="translate(-22.37 -19.28)"/><path class="cls-3" d="M102.63,67.32c-.89,3.21-2.92,5.56-6,5.5-2.89-.06-5-2.28-5.73-5.51-6.4.34-12.68.68-19,1s-12.42.58-19.08.88A16,16,0,0,1,54,67.64a53.07,53.07,0,0,1,23.31-14.4,70.61,70.61,0,0,1,19.38-3.66,54.13,54.13,0,0,1,10.25,1,68.75,68.75,0,0,1,20.6,6.75,51.72,51.72,0,0,1,13.69,10.57,9.17,9.17,0,0,1,.66.94c-4.5.39-8.77,0-13-.19S120,68.23,115.64,68Z" transform="translate(-22.37 -19.28)"/><path class="cls-5" d="M67.47,96.1l23.37-24c6.07,4,9.73,3.26,13.39-2.69l11.59.59a2.24,2.24,0,0,1,.15.33.31.31,0,0,1,0,.2,6.73,6.73,0,0,1-.46.74L101,90c-.61-.35-1.19-.64-1.73-1a4.58,4.58,0,0,0-5,0,15.47,15.47,0,0,0-6,5.66,4.1,4.1,0,0,1-4.09,2.26c-4.83-.15-9.67-.09-14.51-.13-.64,0-1.29-.1-1.93-.15Z" transform="translate(-22.37 -19.28)"/><path class="cls-6" d="M51,96.46c.48-.53.84-1,1.25-1.36Q64.85,83.19,77.48,71.27A4.87,4.87,0,0,1,81,69.84c2.34,0,4.68-.26,7-.31a2.31,2.31,0,0,1,1.68.6c.59.76-.17,1.31-.67,1.83Q82.81,78.33,76.6,84.71c-3.42,3.52-6.8,7.08-10.23,10.59a3.15,3.15,0,0,1-1.76,1.1C60.15,96.5,55.69,96.46,51,96.46Z" transform="translate(-22.37 -19.28)"/><path class="cls-6" d="M119.47,96.28c1.29-1.76,2.55-3.54,3.88-5.26,4.81-6.19,9.66-12.34,14.44-18.55A3.16,3.16,0,0,1,140.74,71c2.47.11,4.95,0,7.29,0a2.75,2.75,0,0,1-.43,3.31Q141.5,82.72,135.4,91c-1.09,1.47-2.22,2.92-3.4,4.31a2.7,2.7,0,0,1-1.55,1c-3.56.22-7.13.32-10.7.45Z" transform="translate(-22.37 -19.28)"/><path class="cls-6" d="M102.3,90.75q6.12-8,12.26-16.07c.89-1.16,1.86-2.26,2.76-3.43a2.21,2.21,0,0,1,2-1c3.21.21,6.43.35,10.1.55-.62.88-1,1.51-1.49,2.1q-7.23,9.42-14.46,18.84c-.94,1.22-1.8,2.5-2.7,3.74a2.85,2.85,0,0,1-4.88.09C104.77,94.08,103.64,92.55,102.3,90.75Z" transform="translate(-22.37 -19.28)"/><path class="cls-3" d="M107.1,30.34c.1,2-.05,4-1.56,5.55a5.1,5.1,0,0,1-2.3,1.55c-3.15.62-6.33,1.14-9.55.34a5.45,5.45,0,0,1-4.4-4.39c-.91-4.46-.56-7,3.39-10.33,2.87-2.4,9.41-2.83,12.93,1.47A8,8,0,0,1,107.1,30.34Z" transform="translate(-22.37 -19.28)"/><path class="cls-5" d="M76.07,70.64c-3.74,3.5-7.48,7-11.2,10.52C60,85.79,55,90.37,50.26,95.11A4.56,4.56,0,0,1,45,96.37c-.79-1.75-.42-3.67-.37-5.53,0-.47.55-1,1-1.39,6.46-5.84,13-11.65,19.4-17.51a5.27,5.27,0,0,1,3.56-1.42c2.46-.08,4.91-.21,7.37-.33Z" transform="translate(-22.37 -19.28)"/><path class="cls-3" d="M65.26,217.62c.93-5.87,4.19-8.07,8.85-8.89a37.28,37.28,0,0,1,7.22-.39c5.2.11,9.24,3.12,10.56,7.69a6.64,6.64,0,0,1,.11,1C83,217.51,74.18,217.54,65.26,217.62Z" transform="translate(-22.37 -19.28)"/><path class="cls-3" d="M125.7,217.16l-26.56.53a8.82,8.82,0,0,1,3.44-6.88,12.12,12.12,0,0,1,6.33-2.24c2-.07,4.09-.29,6.14-.24,5.21.14,9.3,3.19,10.53,7.73A9.29,9.29,0,0,1,125.7,217.16Z" transform="translate(-22.37 -19.28)"/><path class="cls-5" d="M133.15,96.43,148.47,75.9c.38,7.07.61,13.67.32,20.46C143.63,97.3,138.63,96.32,133.15,96.43Z" transform="translate(-22.37 -19.28)"/><path class="cls-4" d="M27.33,159c1.35-1,2.46-1.93,3.68-2.68a22.7,22.7,0,0,1,2.81-1.22c2.92-1.29,5.58-1.24,8.09,1.07a43.2,43.2,0,0,0,4.66,3.29c-1.89,3.28-3.74,6.43-6.65,9.15C35.9,165.28,31.12,163.21,27.33,159Z" transform="translate(-22.37 -19.28)"/><path class="cls-4" d="M145.73,159.49c2.64-1.78,5-3.44,7.47-5a2.24,2.24,0,0,1,1.45-.33c3.66.6,7.14,1.62,9.8,4.43a3.52,3.52,0,0,1,.37.66c-3.34,4-8.26,5.92-12.2,9.36C149.55,166,147.94,162.68,145.73,159.49Z" transform="translate(-22.37 -19.28)"/><path class="cls-5" d="M136.8,71.45q-3.4,4.44-6.79,8.88c-3.93,5.11-7.87,10.21-11.77,15.34A2.37,2.37,0,0,1,116,96.79c-1.3-.07-2.6,0-4.15,0a11.07,11.07,0,0,1,.77-1.45q8.92-11.71,17.85-23.42a2.38,2.38,0,0,1,2.24-1c1.29.07,2.59,0,3.88,0Z" transform="translate(-22.37 -19.28)"/><path class="cls-6" d="M134.9,146.84l15.69,6.49a10.52,10.52,0,0,1-1.17,1.16c-3.43,2.38-6.79,4.89-10.35,7.05-1.68,1-3.77,1.37-6,2.11-.2-3.12.63-5.73.89-8.39S134.56,149.89,134.9,146.84Z" transform="translate(-22.37 -19.28)"/><path class="cls-6" d="M41.71,153.41,57.08,147c0,5.69,1.41,10.82,1.63,16.27-2.63-.65-4.92-1.12-6.92-2.68-2.65-2.06-5.51-3.85-8.28-5.77C43,154.48,42.53,154.06,41.71,153.41Z" transform="translate(-22.37 -19.28)"/><path class="cls-3" d="M142.92,174.59c-2.83,2.39-5.43,4.61-8.07,6.78a3.69,3.69,0,0,1-1.75.84,2.23,2.23,0,0,1-1.76-.44c-1.2-1.55-2.24-3.22-3.3-4.87a6.06,6.06,0,0,1-.44-1.35c2.89-2.31,4.24-5.47,5-9a2,2,0,0,1,1.14-1.09,22,22,0,0,1,2.81-.78A17,17,0,0,0,142.92,174.59Z" transform="translate(-22.37 -19.28)"/><path class="cls-4" d="M152.52,152.05c1-1.83,1.86-3.34,2.57-4.93s1.25-3.27,1.92-5a10.82,10.82,0,0,1,1.49.43c1.6.73,3.2,1.46,4.76,2.26,5.67,2.9,6,8.69,2.56,13.16A12.9,12.9,0,0,0,159.7,154C157.41,153.32,155.09,152.75,152.52,152.05Z" transform="translate(-22.37 -19.28)"/><path class="cls-4" d="M35.12,141.86,39.7,152a6.1,6.1,0,0,1-1.52.62c-4.39.54-8.38,2-11.56,5.17-3.59-4.15-3-9.53,1.51-12.38C30.28,144.09,32.66,143.1,35.12,141.86Z" transform="translate(-22.37 -19.28)"/><path class="cls-3" d="M64.91,176c-.57,1-1,1.84-1.51,2.62s-1.21,1.64-1.77,2.5c-.86,1.31-1.52,1.58-2.92.93a10.05,10.05,0,0,1-2-1.31c-2.21-1.8-4.4-3.64-6.59-5.47a4.54,4.54,0,0,1-.5-.68,16.75,16.75,0,0,0,6.24-9.86l3.05.85C59.82,169.48,60.94,173.36,64.91,176Z" transform="translate(-22.37 -19.28)"/><path class="cls-4" d="M145.87,136.44c-.8,3.91-2.77,7-4.11,10.61L135,144.38v-10c1.16-.43,2.16-.86,3.2-1.16a2.2,2.2,0,0,1,1.44.08C141.72,134.26,143.71,135.33,145.87,136.44Z" transform="translate(-22.37 -19.28)"/><path class="cls-4" d="M147.41,137.25l8.29,4c-1.14,3.67-2.3,7.09-4.73,10.14l-8-3.6Z" transform="translate(-22.37 -19.28)"/><path class="cls-4" d="M36.75,141.23l8.29-4,4.39,10.49-7.93,3.65C39.05,148.36,37.88,144.93,36.75,141.23Z" transform="translate(-22.37 -19.28)"/><path class="cls-4" d="M56.73,133.32v11.29l-6,2.45c-1.42-3.51-3.35-6.7-4.17-10.64,2.42-1.24,4.76-2.59,7.23-3.61C54.56,132.5,55.69,133.12,56.73,133.32Z" transform="translate(-22.37 -19.28)"/><path class="cls-4" d="M138.64,164.38l5.83-4,6.51,9.15c-1.7,1.09-3.48,2.22-5.24,3.38-.88.58-1.51.1-2.16-.42A14,14,0,0,1,138.64,164.38Z" transform="translate(-22.37 -19.28)"/><path class="cls-4" d="M48,160.38l5.8,4a13.12,13.12,0,0,1-5.28,8.41,1.79,1.79,0,0,1-1.57.22c-1.89-1.09-3.7-2.31-5.43-3.43Z" transform="translate(-22.37 -19.28)"/><path class="cls-6" d="M44.54,87.7c.09-1.31.09-2.63.3-3.92a3.13,3.13,0,0,1,.93-1.64q5.63-5.25,11.34-10.41A2.78,2.78,0,0,1,58.62,71c1.59-.1,3.18,0,5.24,0L45,88Z" transform="translate(-22.37 -19.28)"/><path class="cls-4" d="M73.39,192.46V186H84v6.48Z" transform="translate(-22.37 -19.28)"/><path class="cls-4" d="M117.88,186.38v5.9c-3.53.17-7,.09-10.73.15a29.73,29.73,0,0,1,0-6Z" transform="translate(-22.37 -19.28)"/><path class="cls-4" d="M107.09,178.84h10.59v5.9c-3.44.27-6.9.11-10.59.15Z" transform="translate(-22.37 -19.28)"/><path class="cls-4" d="M107.18,199.69v-5.75c3.5-.2,7-.22,10.72-.18v5.57Z" transform="translate(-22.37 -19.28)"/><path class="cls-4" d="M73.28,184.47v-5.72H83.93a30.07,30.07,0,0,1,.12,5.72H73.28Z" transform="translate(-22.37 -19.28)"/><path class="cls-4" d="M84.28,194v5.81H73.58V194l5.12-.05Z" transform="translate(-22.37 -19.28)"/><path class="cls-4" d="M107.33,206.42v-5.19c3.44-.34,7-.34,10.66-.49v5.68Z" transform="translate(-22.37 -19.28)"/><path class="cls-4" d="M73.71,201.46H84.32v4.93H73.71Z" transform="translate(-22.37 -19.28)"/><path class="cls-5" d="M45.14,80.71V71.23H55.51Z" transform="translate(-22.37 -19.28)"/><path class="cls-4" d="M99.94,47.45H95.26a51,51,0,0,1-.15-7.22h4.84Z" transform="translate(-22.37 -19.28)"/><path class="cls-2" d="M96,108.79c1.75-2,3.44-4,5.15-6a17,17,0,0,1,1.95-2.07,1.47,1.47,0,0,1,1.35-.15c.63.38.43,1,0,1.51-2.54,2.93-5.05,5.88-7.64,8.77-.79.89-1.44.81-2.17-.18q-3-4.06-5.85-8.2c-.47-.68-1.2-1.66-.14-2.29s1.45.54,1.85,1.25A33.4,33.4,0,0,0,96,108.79Z" transform="translate(-22.37 -19.28)"/><path class="cls-2" d="M120.78,168.61c-16.8.68-33.34.31-50.08-.38-.49-8.36-1-16.52-1.47-25,17.69.84,35.08,1,52.72.51a25.51,25.51,0,0,1,.15,2.73c-.35,6.44-.74,12.88-1.11,19.32C120.93,166.63,120.86,167.5,120.78,168.61ZM71.09,145c-.42,2.49.64,19.85,1.4,21.92,15.53.58,31.13.95,46.69.34.83-3.24,1.67-20.22,1.17-21.83Z" transform="translate(-22.37 -19.28)"/><path class="cls-3" d="M71.09,145l49.26.43c.51,1.61-.34,18.59-1.17,21.83-15.56.61-31.16.25-46.69-.34C71.74,164.84,70.67,147.48,71.09,145Zm24.53,16.15a4.74,4.74,0,0,0,5.19-4.92,4.89,4.89,0,0,0-5-5.19,5.51,5.51,0,0,0-5.36,5.3C90.4,159,92.59,161,95.62,161.14Z" transform="translate(-22.37 -19.28)"/><path class="cls-2" d="M95.62,161.14c-3-.09-5.22-2.14-5.16-4.81a5.51,5.51,0,0,1,5.36-5.3,4.89,4.89,0,0,1,5,5.19A4.74,4.74,0,0,1,95.62,161.14Zm3.79-4.77a3.38,3.38,0,0,0-3.28-3.87,4,4,0,0,0-4.25,3.58c-.18,2,1.43,3.6,3.76,3.7A3.45,3.45,0,0,0,99.41,156.38Z" transform="translate(-22.37 -19.28)"/><path class="cls-4" d="M99.41,156.38a3.45,3.45,0,0,1-3.77,3.4c-2.33-.1-3.94-1.68-3.76-3.7a4,4,0,0,1,4.25-3.58A3.38,3.38,0,0,1,99.41,156.38Z" transform="translate(-22.37 -19.28)"/></svg>